<mxfile host="Electron" modified="2024-03-09T15:50:24.708Z" agent="Mozilla/5.0 (Windows NT 10.0; Win64; x64) AppleWebKit/537.36 (KHTML, like Gecko) draw.io/23.1.5 Chrome/120.0.6099.109 Electron/28.1.0 Safari/537.36" etag="OMt52rqUPwheGx2zZhLt" version="23.1.5" type="device">
  <diagram id="R2lEEEUBdFMjLlhIrx00" name="Page-1">
    <mxGraphModel dx="1105" dy="1533" grid="1" gridSize="10" guides="1" tooltips="1" connect="1" arrows="0" fold="1" page="1" pageScale="1" pageWidth="1169" pageHeight="827" background="none" math="0" shadow="0" extFonts="Permanent Marker^https://fonts.googleapis.com/css?family=Permanent+Marker">
      <root>
        <object label="" id="0">
          <mxCell />
        </object>
        <mxCell id="1" parent="0" />
        <mxCell id="a-oPj_MtDfVUhcW77k4z-57" value="&lt;b style=&quot;font-size: 14px;&quot;&gt;*&lt;/b&gt;&lt;b style=&quot;border-color: var(--border-color); font-size: 14px;&quot;&gt;audit columns&lt;/b&gt;&lt;b style=&quot;font-size: 14px;&quot;&gt;*&lt;/b&gt;" style="shape=table;startSize=30;container=1;collapsible=1;childLayout=tableLayout;fixedRows=1;rowLines=0;fontStyle=0;align=center;resizeLast=1;fontSize=14;fontFamily=Helvetica;html=1;whiteSpace=wrap;labelBorderColor=none;labelBackgroundColor=none;shadow=0;spacing=2;swimlaneFillColor=none;rounded=1;swimlaneLine=1;fillColor=none;strokeColor=default;snapToPoint=0;fixDash=0;metaEdit=0;backgroundOutline=0;comic=0;" parent="1" vertex="1">
          <mxGeometry x="480" y="480" width="400" height="180" as="geometry" />
        </mxCell>
        <mxCell id="a-oPj_MtDfVUhcW77k4z-58" value="" style="shape=tableRow;horizontal=0;startSize=0;swimlaneHead=0;swimlaneBody=0;fillColor=none;collapsible=0;dropTarget=0;points=[[0,0.5],[1,0.5]];portConstraint=eastwest;top=0;left=0;right=0;bottom=1;fontSize=14;fontFamily=Helvetica;html=1;whiteSpace=wrap;labelBorderColor=none;labelBackgroundColor=none;swimlaneFillColor=default;shadow=0;swimlaneLine=1;rounded=1;strokeColor=default;snapToPoint=0;fixDash=0;metaEdit=0;backgroundOutline=0;comic=0;" parent="a-oPj_MtDfVUhcW77k4z-57" vertex="1">
          <mxGeometry y="30" width="400" height="30" as="geometry" />
        </mxCell>
        <mxCell id="a-oPj_MtDfVUhcW77k4z-59" value="PK" style="shape=partialRectangle;connectable=0;fillColor=none;top=0;left=0;bottom=0;right=0;fontStyle=1;overflow=hidden;fontSize=14;fontFamily=Helvetica;html=1;whiteSpace=wrap;labelBorderColor=none;labelBackgroundColor=none;swimlaneFillColor=default;shadow=0;swimlaneLine=1;rounded=1;strokeColor=default;snapToPoint=0;fixDash=0;metaEdit=0;backgroundOutline=0;comic=0;" parent="a-oPj_MtDfVUhcW77k4z-58" vertex="1">
          <mxGeometry width="40.000000000000455" height="30" as="geometry">
            <mxRectangle width="40.000000000000455" height="30" as="alternateBounds" />
          </mxGeometry>
        </mxCell>
        <mxCell id="a-oPj_MtDfVUhcW77k4z-60" value="id" style="shape=partialRectangle;connectable=0;fillColor=none;top=0;left=0;bottom=0;right=0;align=left;spacingLeft=6;fontStyle=5;overflow=hidden;fontSize=14;fontFamily=Helvetica;html=1;whiteSpace=wrap;labelBorderColor=none;labelBackgroundColor=none;swimlaneFillColor=default;shadow=0;swimlaneLine=1;rounded=1;strokeColor=default;snapToPoint=0;fixDash=0;metaEdit=0;backgroundOutline=0;comic=0;" parent="a-oPj_MtDfVUhcW77k4z-58" vertex="1">
          <mxGeometry x="40.000000000000455" width="159.99999999999955" height="30" as="geometry">
            <mxRectangle width="159.99999999999955" height="30" as="alternateBounds" />
          </mxGeometry>
        </mxCell>
        <mxCell id="a-oPj_MtDfVUhcW77k4z-61" value="UUid:I:U" style="shape=partialRectangle;connectable=0;fillColor=none;top=0;left=0;bottom=0;right=0;align=left;spacingLeft=6;fontStyle=5;overflow=hidden;fontSize=14;fontFamily=Helvetica;html=1;whiteSpace=wrap;labelBorderColor=none;labelBackgroundColor=none;swimlaneFillColor=default;shadow=0;swimlaneLine=1;rounded=1;strokeColor=default;snapToPoint=0;fixDash=0;metaEdit=0;backgroundOutline=0;comic=0;" parent="a-oPj_MtDfVUhcW77k4z-58" vertex="1">
          <mxGeometry x="200" width="200" height="30" as="geometry">
            <mxRectangle width="200" height="30" as="alternateBounds" />
          </mxGeometry>
        </mxCell>
        <mxCell id="a-oPj_MtDfVUhcW77k4z-62" value="" style="shape=tableRow;horizontal=0;startSize=0;swimlaneHead=0;swimlaneBody=0;fillColor=none;collapsible=0;dropTarget=0;points=[[0,0.5],[1,0.5]];portConstraint=eastwest;top=0;left=0;right=0;bottom=0;fontSize=14;fontFamily=Helvetica;html=1;whiteSpace=wrap;labelBorderColor=none;labelBackgroundColor=none;swimlaneFillColor=default;shadow=0;swimlaneLine=1;rounded=1;strokeColor=default;snapToPoint=0;fixDash=0;metaEdit=0;backgroundOutline=0;comic=0;" parent="a-oPj_MtDfVUhcW77k4z-57" vertex="1">
          <mxGeometry y="60" width="400" height="30" as="geometry" />
        </mxCell>
        <mxCell id="a-oPj_MtDfVUhcW77k4z-63" value="" style="shape=partialRectangle;connectable=0;fillColor=none;top=0;left=0;bottom=0;right=0;editable=1;overflow=hidden;fontSize=14;fontFamily=Helvetica;html=1;whiteSpace=wrap;labelBorderColor=none;labelBackgroundColor=none;swimlaneFillColor=default;shadow=0;swimlaneLine=1;rounded=1;strokeColor=default;snapToPoint=0;fixDash=0;metaEdit=0;backgroundOutline=0;comic=0;" parent="a-oPj_MtDfVUhcW77k4z-62" vertex="1">
          <mxGeometry width="40.000000000000455" height="30" as="geometry">
            <mxRectangle width="40.000000000000455" height="30" as="alternateBounds" />
          </mxGeometry>
        </mxCell>
        <mxCell id="a-oPj_MtDfVUhcW77k4z-64" value="created_at" style="shape=partialRectangle;connectable=0;fillColor=none;top=0;left=0;bottom=0;right=0;align=left;spacingLeft=6;overflow=hidden;fontSize=14;fontFamily=Helvetica;html=1;whiteSpace=wrap;labelBorderColor=none;labelBackgroundColor=none;swimlaneFillColor=default;shadow=0;swimlaneLine=1;rounded=1;strokeColor=default;snapToPoint=0;fixDash=0;metaEdit=0;backgroundOutline=0;comic=0;" parent="a-oPj_MtDfVUhcW77k4z-62" vertex="1">
          <mxGeometry x="40.000000000000455" width="159.99999999999955" height="30" as="geometry">
            <mxRectangle width="159.99999999999955" height="30" as="alternateBounds" />
          </mxGeometry>
        </mxCell>
        <mxCell id="a-oPj_MtDfVUhcW77k4z-65" value="Timestamp with time zone:N" style="shape=partialRectangle;connectable=0;fillColor=none;top=0;left=0;bottom=0;right=0;align=left;spacingLeft=6;overflow=hidden;fontSize=14;fontFamily=Helvetica;html=1;whiteSpace=wrap;labelBorderColor=none;labelBackgroundColor=none;swimlaneFillColor=default;shadow=0;swimlaneLine=1;rounded=1;strokeColor=default;snapToPoint=0;fixDash=0;metaEdit=0;backgroundOutline=0;comic=0;" parent="a-oPj_MtDfVUhcW77k4z-62" vertex="1">
          <mxGeometry x="200" width="200" height="30" as="geometry">
            <mxRectangle width="200" height="30" as="alternateBounds" />
          </mxGeometry>
        </mxCell>
        <mxCell id="a-oPj_MtDfVUhcW77k4z-66" value="" style="shape=tableRow;horizontal=0;startSize=0;swimlaneHead=0;swimlaneBody=0;fillColor=none;collapsible=0;dropTarget=0;points=[[0,0.5],[1,0.5]];portConstraint=eastwest;top=0;left=0;right=0;bottom=0;fontSize=14;fontFamily=Helvetica;html=1;whiteSpace=wrap;labelBorderColor=none;labelBackgroundColor=none;swimlaneFillColor=default;shadow=0;swimlaneLine=1;rounded=1;strokeColor=default;snapToPoint=0;fixDash=0;metaEdit=0;backgroundOutline=0;comic=0;" parent="a-oPj_MtDfVUhcW77k4z-57" vertex="1">
          <mxGeometry y="90" width="400" height="30" as="geometry" />
        </mxCell>
        <mxCell id="a-oPj_MtDfVUhcW77k4z-67" value="" style="shape=partialRectangle;connectable=0;fillColor=none;top=0;left=0;bottom=0;right=0;editable=1;overflow=hidden;fontSize=14;fontFamily=Helvetica;html=1;whiteSpace=wrap;labelBorderColor=none;labelBackgroundColor=none;swimlaneFillColor=default;shadow=0;swimlaneLine=1;perimeterSpacing=0;rounded=1;strokeColor=default;snapToPoint=0;fixDash=0;metaEdit=0;backgroundOutline=0;comic=0;" parent="a-oPj_MtDfVUhcW77k4z-66" vertex="1">
          <mxGeometry width="40.000000000000455" height="30" as="geometry">
            <mxRectangle width="40.000000000000455" height="30" as="alternateBounds" />
          </mxGeometry>
        </mxCell>
        <mxCell id="a-oPj_MtDfVUhcW77k4z-68" value="updated_at" style="shape=partialRectangle;connectable=0;fillColor=none;top=0;left=0;bottom=0;right=0;align=left;spacingLeft=6;overflow=hidden;fontSize=14;fontFamily=Helvetica;html=1;whiteSpace=wrap;labelBorderColor=none;labelBackgroundColor=none;swimlaneFillColor=default;shadow=0;swimlaneLine=1;perimeterSpacing=0;rounded=1;strokeColor=default;snapToPoint=0;fixDash=0;metaEdit=0;backgroundOutline=0;comic=0;" parent="a-oPj_MtDfVUhcW77k4z-66" vertex="1">
          <mxGeometry x="40.000000000000455" width="159.99999999999955" height="30" as="geometry">
            <mxRectangle width="159.99999999999955" height="30" as="alternateBounds" />
          </mxGeometry>
        </mxCell>
        <mxCell id="a-oPj_MtDfVUhcW77k4z-69" value="Timestamp with time zone:N" style="shape=partialRectangle;connectable=0;fillColor=none;top=0;left=0;bottom=0;right=0;align=left;spacingLeft=6;overflow=hidden;fontSize=14;fontFamily=Helvetica;html=1;whiteSpace=wrap;labelBorderColor=none;labelBackgroundColor=none;swimlaneFillColor=default;shadow=0;swimlaneLine=1;perimeterSpacing=0;rounded=1;strokeColor=default;snapToPoint=0;fixDash=0;metaEdit=0;backgroundOutline=0;comic=0;" parent="a-oPj_MtDfVUhcW77k4z-66" vertex="1">
          <mxGeometry x="200" width="200" height="30" as="geometry">
            <mxRectangle width="200" height="30" as="alternateBounds" />
          </mxGeometry>
        </mxCell>
        <mxCell id="a-oPj_MtDfVUhcW77k4z-70" style="shape=tableRow;horizontal=0;startSize=0;swimlaneHead=0;swimlaneBody=0;fillColor=none;collapsible=0;dropTarget=0;points=[[0,0.5],[1,0.5]];portConstraint=eastwest;top=0;left=0;right=0;bottom=0;fontSize=14;fontFamily=Helvetica;html=1;whiteSpace=wrap;labelBorderColor=none;labelBackgroundColor=none;swimlaneFillColor=default;shadow=0;swimlaneLine=1;rounded=1;strokeColor=default;snapToPoint=0;fixDash=0;metaEdit=0;backgroundOutline=0;comic=0;" parent="a-oPj_MtDfVUhcW77k4z-57" vertex="1">
          <mxGeometry y="120" width="400" height="30" as="geometry" />
        </mxCell>
        <mxCell id="a-oPj_MtDfVUhcW77k4z-71" style="shape=partialRectangle;connectable=0;fillColor=none;top=0;left=0;bottom=0;right=0;editable=1;overflow=hidden;fontSize=14;fontFamily=Helvetica;html=1;whiteSpace=wrap;labelBorderColor=none;labelBackgroundColor=none;swimlaneFillColor=default;shadow=0;swimlaneLine=1;perimeterSpacing=0;rounded=1;strokeColor=default;snapToPoint=0;fixDash=0;metaEdit=0;backgroundOutline=0;comic=0;" parent="a-oPj_MtDfVUhcW77k4z-70" vertex="1">
          <mxGeometry width="40.000000000000455" height="30" as="geometry">
            <mxRectangle width="40.000000000000455" height="30" as="alternateBounds" />
          </mxGeometry>
        </mxCell>
        <mxCell id="a-oPj_MtDfVUhcW77k4z-72" value="deleted_at" style="shape=partialRectangle;connectable=0;fillColor=none;top=0;left=0;bottom=0;right=0;align=left;spacingLeft=6;overflow=hidden;fontSize=14;fontFamily=Helvetica;html=1;whiteSpace=wrap;labelBorderColor=none;labelBackgroundColor=none;swimlaneFillColor=default;shadow=0;swimlaneLine=1;perimeterSpacing=0;rounded=1;strokeColor=default;snapToPoint=0;fixDash=0;metaEdit=0;backgroundOutline=0;comic=0;" parent="a-oPj_MtDfVUhcW77k4z-70" vertex="1">
          <mxGeometry x="40.000000000000455" width="159.99999999999955" height="30" as="geometry">
            <mxRectangle width="159.99999999999955" height="30" as="alternateBounds" />
          </mxGeometry>
        </mxCell>
        <mxCell id="a-oPj_MtDfVUhcW77k4z-73" value="Timestamp with time zone:N" style="shape=partialRectangle;connectable=0;fillColor=none;top=0;left=0;bottom=0;right=0;align=left;spacingLeft=6;overflow=hidden;fontSize=14;fontFamily=Helvetica;html=1;whiteSpace=wrap;labelBorderColor=none;labelBackgroundColor=none;swimlaneFillColor=default;shadow=0;swimlaneLine=1;perimeterSpacing=0;rounded=1;strokeColor=default;snapToPoint=0;fixDash=0;metaEdit=0;backgroundOutline=0;comic=0;" parent="a-oPj_MtDfVUhcW77k4z-70" vertex="1">
          <mxGeometry x="200" width="200" height="30" as="geometry">
            <mxRectangle width="200" height="30" as="alternateBounds" />
          </mxGeometry>
        </mxCell>
        <mxCell id="a-oPj_MtDfVUhcW77k4z-74" style="shape=tableRow;horizontal=0;startSize=0;swimlaneHead=0;swimlaneBody=0;fillColor=none;collapsible=0;dropTarget=0;points=[[0,0.5],[1,0.5]];portConstraint=eastwest;top=0;left=0;right=0;bottom=0;fontSize=14;fontFamily=Helvetica;html=1;whiteSpace=wrap;labelBorderColor=none;labelBackgroundColor=none;swimlaneFillColor=default;shadow=0;swimlaneLine=1;rounded=1;strokeColor=default;snapToPoint=0;fixDash=0;metaEdit=0;backgroundOutline=0;comic=0;" parent="a-oPj_MtDfVUhcW77k4z-57" vertex="1">
          <mxGeometry y="150" width="400" height="30" as="geometry" />
        </mxCell>
        <mxCell id="a-oPj_MtDfVUhcW77k4z-75" style="shape=partialRectangle;connectable=0;fillColor=none;top=0;left=0;bottom=0;right=0;editable=1;overflow=hidden;fontSize=14;fontFamily=Helvetica;html=1;whiteSpace=wrap;labelBorderColor=none;labelBackgroundColor=none;swimlaneFillColor=default;shadow=0;swimlaneLine=1;perimeterSpacing=0;rounded=1;strokeColor=default;snapToPoint=0;fixDash=0;metaEdit=0;backgroundOutline=0;comic=0;" parent="a-oPj_MtDfVUhcW77k4z-74" vertex="1">
          <mxGeometry width="40.000000000000455" height="30" as="geometry">
            <mxRectangle width="40.000000000000455" height="30" as="alternateBounds" />
          </mxGeometry>
        </mxCell>
        <mxCell id="a-oPj_MtDfVUhcW77k4z-76" value="version" style="shape=partialRectangle;connectable=0;fillColor=none;top=0;left=0;bottom=0;right=0;align=left;spacingLeft=6;overflow=hidden;fontSize=14;fontFamily=Helvetica;html=1;whiteSpace=wrap;labelBorderColor=none;labelBackgroundColor=none;swimlaneFillColor=default;shadow=0;swimlaneLine=1;perimeterSpacing=0;rounded=1;strokeColor=default;snapToPoint=0;fixDash=0;metaEdit=0;backgroundOutline=0;comic=0;" parent="a-oPj_MtDfVUhcW77k4z-74" vertex="1">
          <mxGeometry x="40.000000000000455" width="159.99999999999955" height="30" as="geometry">
            <mxRectangle width="159.99999999999955" height="30" as="alternateBounds" />
          </mxGeometry>
        </mxCell>
        <mxCell id="a-oPj_MtDfVUhcW77k4z-77" value="Integer" style="shape=partialRectangle;connectable=0;fillColor=none;top=0;left=0;bottom=0;right=0;align=left;spacingLeft=6;overflow=hidden;fontSize=14;fontFamily=Helvetica;html=1;whiteSpace=wrap;labelBorderColor=none;labelBackgroundColor=none;swimlaneFillColor=default;shadow=0;swimlaneLine=1;perimeterSpacing=0;rounded=1;strokeColor=default;snapToPoint=0;fixDash=0;metaEdit=0;backgroundOutline=0;comic=0;" parent="a-oPj_MtDfVUhcW77k4z-74" vertex="1">
          <mxGeometry x="200" width="200" height="30" as="geometry">
            <mxRectangle width="200" height="30" as="alternateBounds" />
          </mxGeometry>
        </mxCell>
        <mxCell id="wmbltMZWieqaxzGeqLHv-57" value="issues" style="shape=table;startSize=30;container=1;collapsible=1;childLayout=tableLayout;fixedRows=1;rowLines=0;fontStyle=1;align=center;resizeLast=1;fontFamily=Helvetica;fontSize=14;rounded=1;shadow=0;snapToPoint=0;fixDash=0;metaEdit=0;backgroundOutline=0;comic=0;" parent="1" vertex="1">
          <mxGeometry x="970" y="120" width="400" height="330" as="geometry" />
        </mxCell>
        <mxCell id="wmbltMZWieqaxzGeqLHv-58" value="" style="shape=tableRow;horizontal=0;startSize=0;swimlaneHead=0;swimlaneBody=0;fillColor=none;collapsible=0;dropTarget=0;points=[[0,0.5],[1,0.5]];portConstraint=eastwest;top=0;left=0;right=0;bottom=1;fontFamily=Helvetica;fontSize=14;rounded=1;shadow=0;snapToPoint=0;fixDash=0;metaEdit=0;backgroundOutline=0;comic=0;" parent="wmbltMZWieqaxzGeqLHv-57" vertex="1">
          <mxGeometry y="30" width="400" height="30" as="geometry" />
        </mxCell>
        <mxCell id="wmbltMZWieqaxzGeqLHv-59" value="PK" style="shape=partialRectangle;connectable=0;fillColor=none;top=0;left=0;bottom=0;right=0;fontStyle=1;overflow=hidden;fontFamily=Helvetica;fontSize=14;rounded=1;shadow=0;snapToPoint=0;fixDash=0;metaEdit=0;backgroundOutline=0;comic=0;" parent="wmbltMZWieqaxzGeqLHv-58" vertex="1">
          <mxGeometry width="40" height="30" as="geometry">
            <mxRectangle width="40" height="30" as="alternateBounds" />
          </mxGeometry>
        </mxCell>
        <mxCell id="wmbltMZWieqaxzGeqLHv-60" value="id" style="shape=partialRectangle;connectable=0;fillColor=none;top=0;left=0;bottom=0;right=0;align=left;spacingLeft=6;fontStyle=5;overflow=hidden;fontFamily=Helvetica;fontSize=14;rounded=1;shadow=0;snapToPoint=0;fixDash=0;metaEdit=0;backgroundOutline=0;comic=0;" parent="wmbltMZWieqaxzGeqLHv-58" vertex="1">
          <mxGeometry x="40" width="160" height="30" as="geometry">
            <mxRectangle width="160" height="30" as="alternateBounds" />
          </mxGeometry>
        </mxCell>
        <mxCell id="wmbltMZWieqaxzGeqLHv-61" value="uuid" style="shape=partialRectangle;connectable=0;fillColor=none;top=0;left=0;bottom=0;right=0;align=left;spacingLeft=6;fontStyle=5;overflow=hidden;fontFamily=Helvetica;fontSize=14;rounded=1;shadow=0;snapToPoint=0;fixDash=0;metaEdit=0;backgroundOutline=0;comic=0;" parent="wmbltMZWieqaxzGeqLHv-58" vertex="1">
          <mxGeometry x="200" width="200" height="30" as="geometry">
            <mxRectangle width="200" height="30" as="alternateBounds" />
          </mxGeometry>
        </mxCell>
        <mxCell id="wmbltMZWieqaxzGeqLHv-62" value="" style="shape=tableRow;horizontal=0;startSize=0;swimlaneHead=0;swimlaneBody=0;fillColor=none;collapsible=0;dropTarget=0;points=[[0,0.5],[1,0.5]];portConstraint=eastwest;top=0;left=0;right=0;bottom=0;fontFamily=Helvetica;fontSize=14;rounded=1;shadow=0;snapToPoint=0;fixDash=0;metaEdit=0;backgroundOutline=0;comic=0;" parent="wmbltMZWieqaxzGeqLHv-57" vertex="1">
          <mxGeometry y="60" width="400" height="30" as="geometry" />
        </mxCell>
        <mxCell id="wmbltMZWieqaxzGeqLHv-63" value="" style="shape=partialRectangle;connectable=0;fillColor=none;top=0;left=0;bottom=0;right=0;editable=1;overflow=hidden;fontFamily=Helvetica;fontSize=14;rounded=1;shadow=0;snapToPoint=0;fixDash=0;metaEdit=0;backgroundOutline=0;comic=0;" parent="wmbltMZWieqaxzGeqLHv-62" vertex="1">
          <mxGeometry width="40" height="30" as="geometry">
            <mxRectangle width="40" height="30" as="alternateBounds" />
          </mxGeometry>
        </mxCell>
        <mxCell id="wmbltMZWieqaxzGeqLHv-64" value="name" style="shape=partialRectangle;connectable=0;fillColor=none;top=0;left=0;bottom=0;right=0;align=left;spacingLeft=6;overflow=hidden;fontFamily=Helvetica;fontSize=14;rounded=1;shadow=0;snapToPoint=0;fixDash=0;metaEdit=0;backgroundOutline=0;comic=0;" parent="wmbltMZWieqaxzGeqLHv-62" vertex="1">
          <mxGeometry x="40" width="160" height="30" as="geometry">
            <mxRectangle width="160" height="30" as="alternateBounds" />
          </mxGeometry>
        </mxCell>
        <mxCell id="wmbltMZWieqaxzGeqLHv-65" value="Text" style="shape=partialRectangle;connectable=0;fillColor=none;top=0;left=0;bottom=0;right=0;align=left;spacingLeft=6;overflow=hidden;fontFamily=Helvetica;fontSize=14;rounded=1;shadow=0;snapToPoint=0;fixDash=0;metaEdit=0;backgroundOutline=0;comic=0;" parent="wmbltMZWieqaxzGeqLHv-62" vertex="1">
          <mxGeometry x="200" width="200" height="30" as="geometry">
            <mxRectangle width="200" height="30" as="alternateBounds" />
          </mxGeometry>
        </mxCell>
        <mxCell id="wmbltMZWieqaxzGeqLHv-66" value="" style="shape=tableRow;horizontal=0;startSize=0;swimlaneHead=0;swimlaneBody=0;fillColor=none;collapsible=0;dropTarget=0;points=[[0,0.5],[1,0.5]];portConstraint=eastwest;top=0;left=0;right=0;bottom=0;fontFamily=Helvetica;fontSize=14;rounded=1;shadow=0;snapToPoint=0;fixDash=0;metaEdit=0;backgroundOutline=0;comic=0;" parent="wmbltMZWieqaxzGeqLHv-57" vertex="1">
          <mxGeometry y="90" width="400" height="30" as="geometry" />
        </mxCell>
        <mxCell id="wmbltMZWieqaxzGeqLHv-67" value="" style="shape=partialRectangle;connectable=0;fillColor=none;top=0;left=0;bottom=0;right=0;editable=1;overflow=hidden;fontFamily=Helvetica;fontSize=14;rounded=1;shadow=0;snapToPoint=0;fixDash=0;metaEdit=0;backgroundOutline=0;comic=0;" parent="wmbltMZWieqaxzGeqLHv-66" vertex="1">
          <mxGeometry width="40" height="30" as="geometry">
            <mxRectangle width="40" height="30" as="alternateBounds" />
          </mxGeometry>
        </mxCell>
        <mxCell id="wmbltMZWieqaxzGeqLHv-68" value="description" style="shape=partialRectangle;connectable=0;fillColor=none;top=0;left=0;bottom=0;right=0;align=left;spacingLeft=6;overflow=hidden;fontFamily=Helvetica;fontSize=14;rounded=1;shadow=0;snapToPoint=0;fixDash=0;metaEdit=0;backgroundOutline=0;comic=0;" parent="wmbltMZWieqaxzGeqLHv-66" vertex="1">
          <mxGeometry x="40" width="160" height="30" as="geometry">
            <mxRectangle width="160" height="30" as="alternateBounds" />
          </mxGeometry>
        </mxCell>
        <mxCell id="wmbltMZWieqaxzGeqLHv-69" value="Text:N" style="shape=partialRectangle;connectable=0;fillColor=none;top=0;left=0;bottom=0;right=0;align=left;spacingLeft=6;overflow=hidden;fontFamily=Helvetica;fontSize=14;rounded=1;shadow=0;snapToPoint=0;fixDash=0;metaEdit=0;backgroundOutline=0;comic=0;" parent="wmbltMZWieqaxzGeqLHv-66" vertex="1">
          <mxGeometry x="200" width="200" height="30" as="geometry">
            <mxRectangle width="200" height="30" as="alternateBounds" />
          </mxGeometry>
        </mxCell>
        <mxCell id="wmbltMZWieqaxzGeqLHv-70" value="" style="shape=tableRow;horizontal=0;startSize=0;swimlaneHead=0;swimlaneBody=0;fillColor=none;collapsible=0;dropTarget=0;points=[[0,0.5],[1,0.5]];portConstraint=eastwest;top=0;left=0;right=0;bottom=0;fontFamily=Helvetica;fontSize=14;rounded=1;shadow=0;snapToPoint=0;fixDash=0;metaEdit=0;backgroundOutline=0;comic=0;" parent="wmbltMZWieqaxzGeqLHv-57" vertex="1">
          <mxGeometry y="120" width="400" height="30" as="geometry" />
        </mxCell>
        <mxCell id="wmbltMZWieqaxzGeqLHv-71" value="" style="shape=partialRectangle;connectable=0;fillColor=none;top=0;left=0;bottom=0;right=0;editable=1;overflow=hidden;fontFamily=Helvetica;fontSize=14;rounded=1;shadow=0;snapToPoint=0;fixDash=0;metaEdit=0;backgroundOutline=0;comic=0;" parent="wmbltMZWieqaxzGeqLHv-70" vertex="1">
          <mxGeometry width="40" height="30" as="geometry">
            <mxRectangle width="40" height="30" as="alternateBounds" />
          </mxGeometry>
        </mxCell>
        <mxCell id="wmbltMZWieqaxzGeqLHv-72" value="status" style="shape=partialRectangle;connectable=0;fillColor=none;top=0;left=0;bottom=0;right=0;align=left;spacingLeft=6;overflow=hidden;shadow=0;fontFamily=Helvetica;fontSize=14;rounded=1;snapToPoint=0;fixDash=0;metaEdit=0;backgroundOutline=0;comic=0;" parent="wmbltMZWieqaxzGeqLHv-70" vertex="1">
          <mxGeometry x="40" width="160" height="30" as="geometry">
            <mxRectangle width="160" height="30" as="alternateBounds" />
          </mxGeometry>
        </mxCell>
        <mxCell id="wmbltMZWieqaxzGeqLHv-73" value="Text" style="shape=partialRectangle;connectable=0;fillColor=none;top=0;left=0;bottom=0;right=0;align=left;spacingLeft=6;overflow=hidden;shadow=0;fontFamily=Helvetica;fontSize=14;rounded=1;snapToPoint=0;fixDash=0;metaEdit=0;backgroundOutline=0;comic=0;" parent="wmbltMZWieqaxzGeqLHv-70" vertex="1">
          <mxGeometry x="200" width="200" height="30" as="geometry">
            <mxRectangle width="200" height="30" as="alternateBounds" />
          </mxGeometry>
        </mxCell>
        <mxCell id="wmbltMZWieqaxzGeqLHv-74" style="shape=tableRow;horizontal=0;startSize=0;swimlaneHead=0;swimlaneBody=0;fillColor=none;collapsible=0;dropTarget=0;points=[[0,0.5],[1,0.5]];portConstraint=eastwest;top=0;left=0;right=0;bottom=0;fontFamily=Helvetica;fontSize=14;rounded=1;shadow=0;snapToPoint=0;fixDash=0;metaEdit=0;backgroundOutline=0;comic=0;" parent="wmbltMZWieqaxzGeqLHv-57" vertex="1">
          <mxGeometry y="150" width="400" height="30" as="geometry" />
        </mxCell>
        <mxCell id="wmbltMZWieqaxzGeqLHv-75" value="" style="shape=partialRectangle;connectable=0;fillColor=none;top=0;left=0;bottom=0;right=0;editable=1;overflow=hidden;fontFamily=Helvetica;fontSize=14;rounded=1;shadow=0;snapToPoint=0;fixDash=0;metaEdit=0;backgroundOutline=0;comic=0;" parent="wmbltMZWieqaxzGeqLHv-74" vertex="1">
          <mxGeometry width="40" height="30" as="geometry">
            <mxRectangle width="40" height="30" as="alternateBounds" />
          </mxGeometry>
        </mxCell>
        <mxCell id="wmbltMZWieqaxzGeqLHv-76" value="priority" style="shape=partialRectangle;connectable=0;fillColor=none;top=0;left=0;bottom=0;right=0;align=left;spacingLeft=6;overflow=hidden;shadow=0;fontFamily=Helvetica;fontSize=14;rounded=1;snapToPoint=0;fixDash=0;metaEdit=0;backgroundOutline=0;comic=0;" parent="wmbltMZWieqaxzGeqLHv-74" vertex="1">
          <mxGeometry x="40" width="160" height="30" as="geometry">
            <mxRectangle width="160" height="30" as="alternateBounds" />
          </mxGeometry>
        </mxCell>
        <mxCell id="wmbltMZWieqaxzGeqLHv-77" value="Text" style="shape=partialRectangle;connectable=0;fillColor=none;top=0;left=0;bottom=0;right=0;align=left;spacingLeft=6;overflow=hidden;shadow=0;fontFamily=Helvetica;fontSize=14;rounded=1;snapToPoint=0;fixDash=0;metaEdit=0;backgroundOutline=0;comic=0;" parent="wmbltMZWieqaxzGeqLHv-74" vertex="1">
          <mxGeometry x="200" width="200" height="30" as="geometry">
            <mxRectangle width="200" height="30" as="alternateBounds" />
          </mxGeometry>
        </mxCell>
        <mxCell id="wmbltMZWieqaxzGeqLHv-78" style="shape=tableRow;horizontal=0;startSize=0;swimlaneHead=0;swimlaneBody=0;fillColor=none;collapsible=0;dropTarget=0;points=[[0,0.5],[1,0.5]];portConstraint=eastwest;top=0;left=0;right=0;bottom=0;fontFamily=Helvetica;fontSize=14;rounded=1;shadow=0;snapToPoint=0;fixDash=0;metaEdit=0;backgroundOutline=0;comic=0;" parent="wmbltMZWieqaxzGeqLHv-57" vertex="1">
          <mxGeometry y="180" width="400" height="30" as="geometry" />
        </mxCell>
        <mxCell id="wmbltMZWieqaxzGeqLHv-79" style="shape=partialRectangle;connectable=0;fillColor=none;top=0;left=0;bottom=0;right=0;editable=1;overflow=hidden;fontFamily=Helvetica;fontSize=14;rounded=1;shadow=0;snapToPoint=0;fixDash=0;metaEdit=0;backgroundOutline=0;comic=0;" parent="wmbltMZWieqaxzGeqLHv-78" vertex="1">
          <mxGeometry width="40" height="30" as="geometry">
            <mxRectangle width="40" height="30" as="alternateBounds" />
          </mxGeometry>
        </mxCell>
        <mxCell id="wmbltMZWieqaxzGeqLHv-80" value="resolution" style="shape=partialRectangle;connectable=0;fillColor=none;top=0;left=0;bottom=0;right=0;align=left;spacingLeft=6;overflow=hidden;shadow=0;fontFamily=Helvetica;fontSize=14;rounded=1;snapToPoint=0;fixDash=0;metaEdit=0;backgroundOutline=0;comic=0;" parent="wmbltMZWieqaxzGeqLHv-78" vertex="1">
          <mxGeometry x="40" width="160" height="30" as="geometry">
            <mxRectangle width="160" height="30" as="alternateBounds" />
          </mxGeometry>
        </mxCell>
        <mxCell id="wmbltMZWieqaxzGeqLHv-81" value="boolean" style="shape=partialRectangle;connectable=0;fillColor=none;top=0;left=0;bottom=0;right=0;align=left;spacingLeft=6;overflow=hidden;shadow=0;fontFamily=Helvetica;fontSize=14;rounded=1;snapToPoint=0;fixDash=0;metaEdit=0;backgroundOutline=0;comic=0;" parent="wmbltMZWieqaxzGeqLHv-78" vertex="1">
          <mxGeometry x="200" width="200" height="30" as="geometry">
            <mxRectangle width="200" height="30" as="alternateBounds" />
          </mxGeometry>
        </mxCell>
        <mxCell id="wmbltMZWieqaxzGeqLHv-82" style="shape=tableRow;horizontal=0;startSize=0;swimlaneHead=0;swimlaneBody=0;fillColor=none;collapsible=0;dropTarget=0;points=[[0,0.5],[1,0.5]];portConstraint=eastwest;top=0;left=0;right=0;bottom=0;fontFamily=Helvetica;fontSize=14;rounded=1;shadow=0;snapToPoint=0;fixDash=0;metaEdit=0;backgroundOutline=0;comic=0;" parent="wmbltMZWieqaxzGeqLHv-57" vertex="1">
          <mxGeometry y="210" width="400" height="30" as="geometry" />
        </mxCell>
        <mxCell id="wmbltMZWieqaxzGeqLHv-83" value="FK" style="shape=partialRectangle;connectable=0;fillColor=none;top=0;left=0;bottom=0;right=0;editable=1;overflow=hidden;fontFamily=Helvetica;fontSize=14;rounded=1;shadow=0;snapToPoint=0;fixDash=0;metaEdit=0;backgroundOutline=0;comic=0;" parent="wmbltMZWieqaxzGeqLHv-82" vertex="1">
          <mxGeometry width="40" height="30" as="geometry">
            <mxRectangle width="40" height="30" as="alternateBounds" />
          </mxGeometry>
        </mxCell>
        <mxCell id="wmbltMZWieqaxzGeqLHv-84" value="owner_id" style="shape=partialRectangle;connectable=0;fillColor=none;top=0;left=0;bottom=0;right=0;align=left;spacingLeft=6;overflow=hidden;shadow=0;fontFamily=Helvetica;fontSize=14;rounded=1;snapToPoint=0;fixDash=0;metaEdit=0;backgroundOutline=0;comic=0;" parent="wmbltMZWieqaxzGeqLHv-82" vertex="1">
          <mxGeometry x="40" width="160" height="30" as="geometry">
            <mxRectangle width="160" height="30" as="alternateBounds" />
          </mxGeometry>
        </mxCell>
        <mxCell id="wmbltMZWieqaxzGeqLHv-85" value="UUid" style="shape=partialRectangle;connectable=0;fillColor=none;top=0;left=0;bottom=0;right=0;align=left;spacingLeft=6;overflow=hidden;shadow=0;fontFamily=Helvetica;fontSize=14;rounded=1;snapToPoint=0;fixDash=0;metaEdit=0;backgroundOutline=0;comic=0;" parent="wmbltMZWieqaxzGeqLHv-82" vertex="1">
          <mxGeometry x="200" width="200" height="30" as="geometry">
            <mxRectangle width="200" height="30" as="alternateBounds" />
          </mxGeometry>
        </mxCell>
        <mxCell id="wmbltMZWieqaxzGeqLHv-86" style="shape=tableRow;horizontal=0;startSize=0;swimlaneHead=0;swimlaneBody=0;fillColor=none;collapsible=0;dropTarget=0;points=[[0,0.5],[1,0.5]];portConstraint=eastwest;top=0;left=0;right=0;bottom=0;fontFamily=Helvetica;fontSize=14;rounded=1;shadow=0;snapToPoint=0;fixDash=0;metaEdit=0;backgroundOutline=0;comic=0;" parent="wmbltMZWieqaxzGeqLHv-57" vertex="1">
          <mxGeometry y="240" width="400" height="30" as="geometry" />
        </mxCell>
        <mxCell id="wmbltMZWieqaxzGeqLHv-87" value="FK" style="shape=partialRectangle;connectable=0;fillColor=none;top=0;left=0;bottom=0;right=0;editable=1;overflow=hidden;fontFamily=Helvetica;fontSize=14;rounded=1;shadow=0;snapToPoint=0;fixDash=0;metaEdit=0;backgroundOutline=0;comic=0;" parent="wmbltMZWieqaxzGeqLHv-86" vertex="1">
          <mxGeometry width="40" height="30" as="geometry">
            <mxRectangle width="40" height="30" as="alternateBounds" />
          </mxGeometry>
        </mxCell>
        <mxCell id="wmbltMZWieqaxzGeqLHv-88" value="reporter_id" style="shape=partialRectangle;connectable=0;fillColor=none;top=0;left=0;bottom=0;right=0;align=left;spacingLeft=6;overflow=hidden;shadow=0;fontFamily=Helvetica;fontSize=14;rounded=1;snapToPoint=0;fixDash=0;metaEdit=0;backgroundOutline=0;comic=0;" parent="wmbltMZWieqaxzGeqLHv-86" vertex="1">
          <mxGeometry x="40" width="160" height="30" as="geometry">
            <mxRectangle width="160" height="30" as="alternateBounds" />
          </mxGeometry>
        </mxCell>
        <mxCell id="wmbltMZWieqaxzGeqLHv-89" value="UUid" style="shape=partialRectangle;connectable=0;fillColor=none;top=0;left=0;bottom=0;right=0;align=left;spacingLeft=6;overflow=hidden;shadow=0;fontFamily=Helvetica;fontSize=14;rounded=1;snapToPoint=0;fixDash=0;metaEdit=0;backgroundOutline=0;comic=0;" parent="wmbltMZWieqaxzGeqLHv-86" vertex="1">
          <mxGeometry x="200" width="200" height="30" as="geometry">
            <mxRectangle width="200" height="30" as="alternateBounds" />
          </mxGeometry>
        </mxCell>
        <mxCell id="wmbltMZWieqaxzGeqLHv-90" style="shape=tableRow;horizontal=0;startSize=0;swimlaneHead=0;swimlaneBody=0;fillColor=none;collapsible=0;dropTarget=0;points=[[0,0.5],[1,0.5]];portConstraint=eastwest;top=0;left=0;right=0;bottom=0;fontFamily=Helvetica;fontSize=14;rounded=1;shadow=0;snapToPoint=0;fixDash=0;metaEdit=0;backgroundOutline=0;comic=0;" parent="wmbltMZWieqaxzGeqLHv-57" vertex="1">
          <mxGeometry y="270" width="400" height="30" as="geometry" />
        </mxCell>
        <mxCell id="wmbltMZWieqaxzGeqLHv-91" value="" style="shape=partialRectangle;connectable=0;fillColor=none;top=0;left=0;bottom=0;right=0;editable=1;overflow=hidden;fontFamily=Helvetica;fontSize=14;rounded=1;shadow=0;snapToPoint=0;fixDash=0;metaEdit=0;backgroundOutline=0;comic=0;" parent="wmbltMZWieqaxzGeqLHv-90" vertex="1">
          <mxGeometry width="40" height="30" as="geometry">
            <mxRectangle width="40" height="30" as="alternateBounds" />
          </mxGeometry>
        </mxCell>
        <mxCell id="wmbltMZWieqaxzGeqLHv-92" value="project_id" style="shape=partialRectangle;connectable=0;fillColor=none;top=0;left=0;bottom=0;right=0;align=left;spacingLeft=6;overflow=hidden;shadow=0;fontFamily=Helvetica;fontSize=14;rounded=1;snapToPoint=0;fixDash=0;metaEdit=0;backgroundOutline=0;comic=0;" parent="wmbltMZWieqaxzGeqLHv-90" vertex="1">
          <mxGeometry x="40" width="160" height="30" as="geometry">
            <mxRectangle width="160" height="30" as="alternateBounds" />
          </mxGeometry>
        </mxCell>
        <mxCell id="wmbltMZWieqaxzGeqLHv-93" value="UUid" style="shape=partialRectangle;connectable=0;fillColor=none;top=0;left=0;bottom=0;right=0;align=left;spacingLeft=6;overflow=hidden;shadow=0;fontFamily=Helvetica;fontSize=14;rounded=1;snapToPoint=0;fixDash=0;metaEdit=0;backgroundOutline=0;comic=0;" parent="wmbltMZWieqaxzGeqLHv-90" vertex="1">
          <mxGeometry x="200" width="200" height="30" as="geometry">
            <mxRectangle width="200" height="30" as="alternateBounds" />
          </mxGeometry>
        </mxCell>
        <mxCell id="wmbltMZWieqaxzGeqLHv-94" style="shape=tableRow;horizontal=0;startSize=0;swimlaneHead=0;swimlaneBody=0;fillColor=none;collapsible=0;dropTarget=0;points=[[0,0.5],[1,0.5]];portConstraint=eastwest;top=0;left=0;right=0;bottom=0;fontFamily=Helvetica;fontSize=14;rounded=1;shadow=0;snapToPoint=0;fixDash=0;metaEdit=0;backgroundOutline=0;comic=0;" parent="wmbltMZWieqaxzGeqLHv-57" vertex="1">
          <mxGeometry y="300" width="400" height="30" as="geometry" />
        </mxCell>
        <mxCell id="wmbltMZWieqaxzGeqLHv-95" style="shape=partialRectangle;connectable=0;fillColor=none;top=0;left=0;bottom=0;right=0;editable=1;overflow=hidden;fontFamily=Helvetica;fontSize=14;rounded=1;shadow=0;snapToPoint=0;fixDash=0;metaEdit=0;backgroundOutline=0;comic=0;" parent="wmbltMZWieqaxzGeqLHv-94" vertex="1">
          <mxGeometry width="40" height="30" as="geometry">
            <mxRectangle width="40" height="30" as="alternateBounds" />
          </mxGeometry>
        </mxCell>
        <mxCell id="wmbltMZWieqaxzGeqLHv-96" value="due_date" style="shape=partialRectangle;connectable=0;fillColor=none;top=0;left=0;bottom=0;right=0;align=left;spacingLeft=6;overflow=hidden;shadow=0;fontFamily=Helvetica;fontSize=14;rounded=1;snapToPoint=0;fixDash=0;metaEdit=0;backgroundOutline=0;comic=0;" parent="wmbltMZWieqaxzGeqLHv-94" vertex="1">
          <mxGeometry x="40" width="160" height="30" as="geometry">
            <mxRectangle width="160" height="30" as="alternateBounds" />
          </mxGeometry>
        </mxCell>
        <mxCell id="wmbltMZWieqaxzGeqLHv-97" value="Timestamp with time zone:N" style="shape=partialRectangle;connectable=0;fillColor=none;top=0;left=0;bottom=0;right=0;align=left;spacingLeft=6;overflow=hidden;shadow=0;fontFamily=Helvetica;fontSize=14;rounded=1;snapToPoint=0;fixDash=0;metaEdit=0;backgroundOutline=0;comic=0;" parent="wmbltMZWieqaxzGeqLHv-94" vertex="1">
          <mxGeometry x="200" width="200" height="30" as="geometry">
            <mxRectangle width="200" height="30" as="alternateBounds" />
          </mxGeometry>
        </mxCell>
        <mxCell id="wmbltMZWieqaxzGeqLHv-106" value="issue_task_groups" style="shape=table;startSize=30;container=1;collapsible=1;childLayout=tableLayout;fixedRows=1;rowLines=0;fontStyle=1;align=center;resizeLast=1;fontFamily=Helvetica;fontSize=14;rounded=1;shadow=0;snapToPoint=0;fixDash=0;metaEdit=0;backgroundOutline=0;comic=0;" parent="1" vertex="1">
          <mxGeometry x="490" y="-210" width="400" height="180" as="geometry" />
        </mxCell>
        <mxCell id="wmbltMZWieqaxzGeqLHv-107" value="" style="shape=tableRow;horizontal=0;startSize=0;swimlaneHead=0;swimlaneBody=0;fillColor=none;collapsible=0;dropTarget=0;points=[[0,0.5],[1,0.5]];portConstraint=eastwest;top=0;left=0;right=0;bottom=1;fontFamily=Helvetica;fontSize=14;rounded=1;shadow=0;snapToPoint=0;fixDash=0;metaEdit=0;backgroundOutline=0;comic=0;" parent="wmbltMZWieqaxzGeqLHv-106" vertex="1">
          <mxGeometry y="30" width="400" height="30" as="geometry" />
        </mxCell>
        <mxCell id="wmbltMZWieqaxzGeqLHv-108" value="PK" style="shape=partialRectangle;connectable=0;fillColor=none;top=0;left=0;bottom=0;right=0;fontStyle=1;overflow=hidden;fontFamily=Helvetica;fontSize=14;rounded=1;shadow=0;snapToPoint=0;fixDash=0;metaEdit=0;backgroundOutline=0;comic=0;" parent="wmbltMZWieqaxzGeqLHv-107" vertex="1">
          <mxGeometry width="40" height="30" as="geometry">
            <mxRectangle width="40" height="30" as="alternateBounds" />
          </mxGeometry>
        </mxCell>
        <mxCell id="wmbltMZWieqaxzGeqLHv-109" value="id" style="shape=partialRectangle;connectable=0;fillColor=none;top=0;left=0;bottom=0;right=0;align=left;spacingLeft=6;fontStyle=5;overflow=hidden;fontFamily=Helvetica;fontSize=14;rounded=1;shadow=0;snapToPoint=0;fixDash=0;metaEdit=0;backgroundOutline=0;comic=0;" parent="wmbltMZWieqaxzGeqLHv-107" vertex="1">
          <mxGeometry x="40" width="160" height="30" as="geometry">
            <mxRectangle width="160" height="30" as="alternateBounds" />
          </mxGeometry>
        </mxCell>
        <mxCell id="wmbltMZWieqaxzGeqLHv-110" value="uuid" style="shape=partialRectangle;connectable=0;fillColor=none;top=0;left=0;bottom=0;right=0;align=left;spacingLeft=6;fontStyle=5;overflow=hidden;fontFamily=Helvetica;fontSize=14;rounded=1;shadow=0;snapToPoint=0;fixDash=0;metaEdit=0;backgroundOutline=0;comic=0;" parent="wmbltMZWieqaxzGeqLHv-107" vertex="1">
          <mxGeometry x="200" width="200" height="30" as="geometry">
            <mxRectangle width="200" height="30" as="alternateBounds" />
          </mxGeometry>
        </mxCell>
        <mxCell id="wmbltMZWieqaxzGeqLHv-115" value="" style="shape=tableRow;horizontal=0;startSize=0;swimlaneHead=0;swimlaneBody=0;fillColor=none;collapsible=0;dropTarget=0;points=[[0,0.5],[1,0.5]];portConstraint=eastwest;top=0;left=0;right=0;bottom=0;fontFamily=Helvetica;fontSize=14;rounded=1;shadow=0;snapToPoint=0;fixDash=0;metaEdit=0;backgroundOutline=0;comic=0;" parent="wmbltMZWieqaxzGeqLHv-106" vertex="1">
          <mxGeometry y="60" width="400" height="30" as="geometry" />
        </mxCell>
        <mxCell id="wmbltMZWieqaxzGeqLHv-116" value="" style="shape=partialRectangle;connectable=0;fillColor=none;top=0;left=0;bottom=0;right=0;editable=1;overflow=hidden;fontFamily=Helvetica;fontSize=14;rounded=1;shadow=0;snapToPoint=0;fixDash=0;metaEdit=0;backgroundOutline=0;comic=0;" parent="wmbltMZWieqaxzGeqLHv-115" vertex="1">
          <mxGeometry width="40" height="30" as="geometry">
            <mxRectangle width="40" height="30" as="alternateBounds" />
          </mxGeometry>
        </mxCell>
        <mxCell id="wmbltMZWieqaxzGeqLHv-117" value="name" style="shape=partialRectangle;connectable=0;fillColor=none;top=0;left=0;bottom=0;right=0;align=left;spacingLeft=6;overflow=hidden;fontFamily=Helvetica;fontSize=14;rounded=1;shadow=0;snapToPoint=0;fixDash=0;metaEdit=0;backgroundOutline=0;comic=0;" parent="wmbltMZWieqaxzGeqLHv-115" vertex="1">
          <mxGeometry x="40" width="160" height="30" as="geometry">
            <mxRectangle width="160" height="30" as="alternateBounds" />
          </mxGeometry>
        </mxCell>
        <mxCell id="wmbltMZWieqaxzGeqLHv-118" value="Text" style="shape=partialRectangle;connectable=0;fillColor=none;top=0;left=0;bottom=0;right=0;align=left;spacingLeft=6;overflow=hidden;fontFamily=Helvetica;fontSize=14;rounded=1;shadow=0;snapToPoint=0;fixDash=0;metaEdit=0;backgroundOutline=0;comic=0;" parent="wmbltMZWieqaxzGeqLHv-115" vertex="1">
          <mxGeometry x="200" width="200" height="30" as="geometry">
            <mxRectangle width="200" height="30" as="alternateBounds" />
          </mxGeometry>
        </mxCell>
        <mxCell id="wmbltMZWieqaxzGeqLHv-119" value="" style="shape=tableRow;horizontal=0;startSize=0;swimlaneHead=0;swimlaneBody=0;fillColor=none;collapsible=0;dropTarget=0;points=[[0,0.5],[1,0.5]];portConstraint=eastwest;top=0;left=0;right=0;bottom=0;fontFamily=Helvetica;fontSize=14;rounded=1;shadow=0;snapToPoint=0;fixDash=0;metaEdit=0;backgroundOutline=0;comic=0;" parent="wmbltMZWieqaxzGeqLHv-106" vertex="1">
          <mxGeometry y="90" width="400" height="30" as="geometry" />
        </mxCell>
        <mxCell id="wmbltMZWieqaxzGeqLHv-120" value="FK" style="shape=partialRectangle;connectable=0;fillColor=none;top=0;left=0;bottom=0;right=0;editable=1;overflow=hidden;fontFamily=Helvetica;fontSize=14;rounded=1;shadow=0;snapToPoint=0;fixDash=0;metaEdit=0;backgroundOutline=0;comic=0;" parent="wmbltMZWieqaxzGeqLHv-119" vertex="1">
          <mxGeometry width="40" height="30" as="geometry">
            <mxRectangle width="40" height="30" as="alternateBounds" />
          </mxGeometry>
        </mxCell>
        <mxCell id="wmbltMZWieqaxzGeqLHv-121" value="issue_id" style="shape=partialRectangle;connectable=0;fillColor=none;top=0;left=0;bottom=0;right=0;align=left;spacingLeft=6;overflow=hidden;shadow=0;fontFamily=Helvetica;fontSize=14;rounded=1;snapToPoint=0;fixDash=0;metaEdit=0;backgroundOutline=0;comic=0;" parent="wmbltMZWieqaxzGeqLHv-119" vertex="1">
          <mxGeometry x="40" width="160" height="30" as="geometry">
            <mxRectangle width="160" height="30" as="alternateBounds" />
          </mxGeometry>
        </mxCell>
        <mxCell id="wmbltMZWieqaxzGeqLHv-122" value="UUid" style="shape=partialRectangle;connectable=0;fillColor=none;top=0;left=0;bottom=0;right=0;align=left;spacingLeft=6;overflow=hidden;shadow=0;fontFamily=Helvetica;fontSize=14;rounded=1;snapToPoint=0;fixDash=0;metaEdit=0;backgroundOutline=0;comic=0;" parent="wmbltMZWieqaxzGeqLHv-119" vertex="1">
          <mxGeometry x="200" width="200" height="30" as="geometry">
            <mxRectangle width="200" height="30" as="alternateBounds" />
          </mxGeometry>
        </mxCell>
        <mxCell id="wmbltMZWieqaxzGeqLHv-123" style="shape=tableRow;horizontal=0;startSize=0;swimlaneHead=0;swimlaneBody=0;fillColor=none;collapsible=0;dropTarget=0;points=[[0,0.5],[1,0.5]];portConstraint=eastwest;top=0;left=0;right=0;bottom=0;fontFamily=Helvetica;fontSize=14;rounded=1;shadow=0;snapToPoint=0;fixDash=0;metaEdit=0;backgroundOutline=0;comic=0;" parent="wmbltMZWieqaxzGeqLHv-106" vertex="1">
          <mxGeometry y="120" width="400" height="30" as="geometry" />
        </mxCell>
        <mxCell id="wmbltMZWieqaxzGeqLHv-124" value="" style="shape=partialRectangle;connectable=0;fillColor=none;top=0;left=0;bottom=0;right=0;editable=1;overflow=hidden;fontFamily=Helvetica;fontSize=14;rounded=1;shadow=0;snapToPoint=0;fixDash=0;metaEdit=0;backgroundOutline=0;comic=0;" parent="wmbltMZWieqaxzGeqLHv-123" vertex="1">
          <mxGeometry width="40" height="30" as="geometry">
            <mxRectangle width="40" height="30" as="alternateBounds" />
          </mxGeometry>
        </mxCell>
        <mxCell id="wmbltMZWieqaxzGeqLHv-125" value="due_date" style="shape=partialRectangle;connectable=0;fillColor=none;top=0;left=0;bottom=0;right=0;align=left;spacingLeft=6;overflow=hidden;shadow=0;fontFamily=Helvetica;fontSize=14;rounded=1;snapToPoint=0;fixDash=0;metaEdit=0;backgroundOutline=0;comic=0;" parent="wmbltMZWieqaxzGeqLHv-123" vertex="1">
          <mxGeometry x="40" width="160" height="30" as="geometry">
            <mxRectangle width="160" height="30" as="alternateBounds" />
          </mxGeometry>
        </mxCell>
        <mxCell id="wmbltMZWieqaxzGeqLHv-126" value="Timestamp with time zone:N" style="shape=partialRectangle;connectable=0;fillColor=none;top=0;left=0;bottom=0;right=0;align=left;spacingLeft=6;overflow=hidden;shadow=0;fontFamily=Helvetica;fontSize=14;rounded=1;snapToPoint=0;fixDash=0;metaEdit=0;backgroundOutline=0;comic=0;" parent="wmbltMZWieqaxzGeqLHv-123" vertex="1">
          <mxGeometry x="200" width="200" height="30" as="geometry">
            <mxRectangle width="200" height="30" as="alternateBounds" />
          </mxGeometry>
        </mxCell>
        <mxCell id="wmbltMZWieqaxzGeqLHv-127" style="shape=tableRow;horizontal=0;startSize=0;swimlaneHead=0;swimlaneBody=0;fillColor=none;collapsible=0;dropTarget=0;points=[[0,0.5],[1,0.5]];portConstraint=eastwest;top=0;left=0;right=0;bottom=0;fontFamily=Helvetica;fontSize=14;rounded=1;shadow=0;snapToPoint=0;fixDash=0;metaEdit=0;backgroundOutline=0;comic=0;" parent="wmbltMZWieqaxzGeqLHv-106" vertex="1">
          <mxGeometry y="150" width="400" height="30" as="geometry" />
        </mxCell>
        <mxCell id="wmbltMZWieqaxzGeqLHv-128" value="FK" style="shape=partialRectangle;connectable=0;fillColor=none;top=0;left=0;bottom=0;right=0;editable=1;overflow=hidden;fontFamily=Helvetica;fontSize=14;rounded=1;shadow=0;snapToPoint=0;fixDash=0;metaEdit=0;backgroundOutline=0;comic=0;" parent="wmbltMZWieqaxzGeqLHv-127" vertex="1">
          <mxGeometry width="40" height="30" as="geometry">
            <mxRectangle width="40" height="30" as="alternateBounds" />
          </mxGeometry>
        </mxCell>
        <mxCell id="wmbltMZWieqaxzGeqLHv-129" value="owner_id" style="shape=partialRectangle;connectable=0;fillColor=none;top=0;left=0;bottom=0;right=0;align=left;spacingLeft=6;overflow=hidden;shadow=0;fontFamily=Helvetica;fontSize=14;rounded=1;snapToPoint=0;fixDash=0;metaEdit=0;backgroundOutline=0;comic=0;" parent="wmbltMZWieqaxzGeqLHv-127" vertex="1">
          <mxGeometry x="40" width="160" height="30" as="geometry">
            <mxRectangle width="160" height="30" as="alternateBounds" />
          </mxGeometry>
        </mxCell>
        <mxCell id="wmbltMZWieqaxzGeqLHv-130" value="UUid" style="shape=partialRectangle;connectable=0;fillColor=none;top=0;left=0;bottom=0;right=0;align=left;spacingLeft=6;overflow=hidden;shadow=0;fontFamily=Helvetica;fontSize=14;rounded=1;snapToPoint=0;fixDash=0;metaEdit=0;backgroundOutline=0;comic=0;" parent="wmbltMZWieqaxzGeqLHv-127" vertex="1">
          <mxGeometry x="200" width="200" height="30" as="geometry">
            <mxRectangle width="200" height="30" as="alternateBounds" />
          </mxGeometry>
        </mxCell>
        <mxCell id="wmbltMZWieqaxzGeqLHv-168" value="issue_comments" style="shape=table;startSize=30;container=1;collapsible=1;childLayout=tableLayout;fixedRows=1;rowLines=0;fontStyle=1;align=center;resizeLast=1;fontFamily=Helvetica;fontSize=14;rounded=1;shadow=0;snapToPoint=0;fixDash=0;metaEdit=0;backgroundOutline=0;comic=0;" parent="1" vertex="1">
          <mxGeometry x="40" y="-120" width="400" height="150" as="geometry" />
        </mxCell>
        <mxCell id="wmbltMZWieqaxzGeqLHv-169" value="" style="shape=tableRow;horizontal=0;startSize=0;swimlaneHead=0;swimlaneBody=0;fillColor=none;collapsible=0;dropTarget=0;points=[[0,0.5],[1,0.5]];portConstraint=eastwest;top=0;left=0;right=0;bottom=1;fontFamily=Helvetica;fontSize=14;rounded=1;shadow=0;snapToPoint=0;fixDash=0;metaEdit=0;backgroundOutline=0;comic=0;" parent="wmbltMZWieqaxzGeqLHv-168" vertex="1">
          <mxGeometry y="30" width="400" height="30" as="geometry" />
        </mxCell>
        <mxCell id="wmbltMZWieqaxzGeqLHv-170" value="PK" style="shape=partialRectangle;connectable=0;fillColor=none;top=0;left=0;bottom=0;right=0;fontStyle=1;overflow=hidden;fontFamily=Helvetica;fontSize=14;rounded=1;shadow=0;snapToPoint=0;fixDash=0;metaEdit=0;backgroundOutline=0;comic=0;" parent="wmbltMZWieqaxzGeqLHv-169" vertex="1">
          <mxGeometry width="40" height="30" as="geometry">
            <mxRectangle width="40" height="30" as="alternateBounds" />
          </mxGeometry>
        </mxCell>
        <mxCell id="wmbltMZWieqaxzGeqLHv-171" value="id" style="shape=partialRectangle;connectable=0;fillColor=none;top=0;left=0;bottom=0;right=0;align=left;spacingLeft=6;fontStyle=5;overflow=hidden;fontFamily=Helvetica;fontSize=14;rounded=1;shadow=0;snapToPoint=0;fixDash=0;metaEdit=0;backgroundOutline=0;comic=0;" parent="wmbltMZWieqaxzGeqLHv-169" vertex="1">
          <mxGeometry x="40" width="160" height="30" as="geometry">
            <mxRectangle width="160" height="30" as="alternateBounds" />
          </mxGeometry>
        </mxCell>
        <mxCell id="wmbltMZWieqaxzGeqLHv-172" value="uuid" style="shape=partialRectangle;connectable=0;fillColor=none;top=0;left=0;bottom=0;right=0;align=left;spacingLeft=6;fontStyle=5;overflow=hidden;fontFamily=Helvetica;fontSize=14;rounded=1;shadow=0;snapToPoint=0;fixDash=0;metaEdit=0;backgroundOutline=0;comic=0;" parent="wmbltMZWieqaxzGeqLHv-169" vertex="1">
          <mxGeometry x="200" width="200" height="30" as="geometry">
            <mxRectangle width="200" height="30" as="alternateBounds" />
          </mxGeometry>
        </mxCell>
        <mxCell id="wmbltMZWieqaxzGeqLHv-173" value="" style="shape=tableRow;horizontal=0;startSize=0;swimlaneHead=0;swimlaneBody=0;fillColor=none;collapsible=0;dropTarget=0;points=[[0,0.5],[1,0.5]];portConstraint=eastwest;top=0;left=0;right=0;bottom=0;fontFamily=Helvetica;fontSize=14;rounded=1;shadow=0;snapToPoint=0;fixDash=0;metaEdit=0;backgroundOutline=0;comic=0;" parent="wmbltMZWieqaxzGeqLHv-168" vertex="1">
          <mxGeometry y="60" width="400" height="30" as="geometry" />
        </mxCell>
        <mxCell id="wmbltMZWieqaxzGeqLHv-174" value="FK" style="shape=partialRectangle;connectable=0;fillColor=none;top=0;left=0;bottom=0;right=0;editable=1;overflow=hidden;fontFamily=Helvetica;fontSize=14;rounded=1;shadow=0;snapToPoint=0;fixDash=0;metaEdit=0;backgroundOutline=0;comic=0;" parent="wmbltMZWieqaxzGeqLHv-173" vertex="1">
          <mxGeometry width="40" height="30" as="geometry">
            <mxRectangle width="40" height="30" as="alternateBounds" />
          </mxGeometry>
        </mxCell>
        <mxCell id="wmbltMZWieqaxzGeqLHv-175" value="issue_id" style="shape=partialRectangle;connectable=0;fillColor=none;top=0;left=0;bottom=0;right=0;align=left;spacingLeft=6;overflow=hidden;fontFamily=Helvetica;fontSize=14;rounded=1;shadow=0;snapToPoint=0;fixDash=0;metaEdit=0;backgroundOutline=0;comic=0;" parent="wmbltMZWieqaxzGeqLHv-173" vertex="1">
          <mxGeometry x="40" width="160" height="30" as="geometry">
            <mxRectangle width="160" height="30" as="alternateBounds" />
          </mxGeometry>
        </mxCell>
        <mxCell id="wmbltMZWieqaxzGeqLHv-176" value="UUid" style="shape=partialRectangle;connectable=0;fillColor=none;top=0;left=0;bottom=0;right=0;align=left;spacingLeft=6;overflow=hidden;fontFamily=Helvetica;fontSize=14;rounded=1;shadow=0;snapToPoint=0;fixDash=0;metaEdit=0;backgroundOutline=0;comic=0;" parent="wmbltMZWieqaxzGeqLHv-173" vertex="1">
          <mxGeometry x="200" width="200" height="30" as="geometry">
            <mxRectangle width="200" height="30" as="alternateBounds" />
          </mxGeometry>
        </mxCell>
        <mxCell id="wmbltMZWieqaxzGeqLHv-177" value="" style="shape=tableRow;horizontal=0;startSize=0;swimlaneHead=0;swimlaneBody=0;fillColor=none;collapsible=0;dropTarget=0;points=[[0,0.5],[1,0.5]];portConstraint=eastwest;top=0;left=0;right=0;bottom=0;fontFamily=Helvetica;fontSize=14;rounded=1;shadow=0;snapToPoint=0;fixDash=0;metaEdit=0;backgroundOutline=0;comic=0;" parent="wmbltMZWieqaxzGeqLHv-168" vertex="1">
          <mxGeometry y="90" width="400" height="30" as="geometry" />
        </mxCell>
        <mxCell id="wmbltMZWieqaxzGeqLHv-178" value="" style="shape=partialRectangle;connectable=0;fillColor=none;top=0;left=0;bottom=0;right=0;editable=1;overflow=hidden;fontFamily=Helvetica;fontSize=14;rounded=1;shadow=0;snapToPoint=0;fixDash=0;metaEdit=0;backgroundOutline=0;comic=0;" parent="wmbltMZWieqaxzGeqLHv-177" vertex="1">
          <mxGeometry width="40" height="30" as="geometry">
            <mxRectangle width="40" height="30" as="alternateBounds" />
          </mxGeometry>
        </mxCell>
        <mxCell id="wmbltMZWieqaxzGeqLHv-179" value="description" style="shape=partialRectangle;connectable=0;fillColor=none;top=0;left=0;bottom=0;right=0;align=left;spacingLeft=6;overflow=hidden;shadow=0;fontFamily=Helvetica;fontSize=14;rounded=1;snapToPoint=0;fixDash=0;metaEdit=0;backgroundOutline=0;comic=0;" parent="wmbltMZWieqaxzGeqLHv-177" vertex="1">
          <mxGeometry x="40" width="160" height="30" as="geometry">
            <mxRectangle width="160" height="30" as="alternateBounds" />
          </mxGeometry>
        </mxCell>
        <mxCell id="wmbltMZWieqaxzGeqLHv-180" value="Text" style="shape=partialRectangle;connectable=0;fillColor=none;top=0;left=0;bottom=0;right=0;align=left;spacingLeft=6;overflow=hidden;shadow=0;fontFamily=Helvetica;fontSize=14;rounded=1;snapToPoint=0;fixDash=0;metaEdit=0;backgroundOutline=0;comic=0;" parent="wmbltMZWieqaxzGeqLHv-177" vertex="1">
          <mxGeometry x="200" width="200" height="30" as="geometry">
            <mxRectangle width="200" height="30" as="alternateBounds" />
          </mxGeometry>
        </mxCell>
        <mxCell id="wmbltMZWieqaxzGeqLHv-181" style="shape=tableRow;horizontal=0;startSize=0;swimlaneHead=0;swimlaneBody=0;fillColor=none;collapsible=0;dropTarget=0;points=[[0,0.5],[1,0.5]];portConstraint=eastwest;top=0;left=0;right=0;bottom=0;fontFamily=Helvetica;fontSize=14;rounded=1;shadow=0;snapToPoint=0;fixDash=0;metaEdit=0;backgroundOutline=0;comic=0;" parent="wmbltMZWieqaxzGeqLHv-168" vertex="1">
          <mxGeometry y="120" width="400" height="30" as="geometry" />
        </mxCell>
        <mxCell id="wmbltMZWieqaxzGeqLHv-182" value="FK" style="shape=partialRectangle;connectable=0;fillColor=none;top=0;left=0;bottom=0;right=0;editable=1;overflow=hidden;fontFamily=Helvetica;fontSize=14;rounded=1;shadow=0;snapToPoint=0;fixDash=0;metaEdit=0;backgroundOutline=0;comic=0;" parent="wmbltMZWieqaxzGeqLHv-181" vertex="1">
          <mxGeometry width="40" height="30" as="geometry">
            <mxRectangle width="40" height="30" as="alternateBounds" />
          </mxGeometry>
        </mxCell>
        <mxCell id="wmbltMZWieqaxzGeqLHv-183" value="user_id" style="shape=partialRectangle;connectable=0;fillColor=none;top=0;left=0;bottom=0;right=0;align=left;spacingLeft=6;overflow=hidden;shadow=0;fontFamily=Helvetica;fontSize=14;rounded=1;snapToPoint=0;fixDash=0;metaEdit=0;backgroundOutline=0;comic=0;" parent="wmbltMZWieqaxzGeqLHv-181" vertex="1">
          <mxGeometry x="40" width="160" height="30" as="geometry">
            <mxRectangle width="160" height="30" as="alternateBounds" />
          </mxGeometry>
        </mxCell>
        <mxCell id="wmbltMZWieqaxzGeqLHv-184" value="UUid" style="shape=partialRectangle;connectable=0;fillColor=none;top=0;left=0;bottom=0;right=0;align=left;spacingLeft=6;overflow=hidden;shadow=0;fontFamily=Helvetica;fontSize=14;rounded=1;snapToPoint=0;fixDash=0;metaEdit=0;backgroundOutline=0;comic=0;" parent="wmbltMZWieqaxzGeqLHv-181" vertex="1">
          <mxGeometry x="200" width="200" height="30" as="geometry">
            <mxRectangle width="200" height="30" as="alternateBounds" />
          </mxGeometry>
        </mxCell>
        <mxCell id="wmbltMZWieqaxzGeqLHv-210" value="issue_assignees" style="shape=table;startSize=30;container=1;collapsible=1;childLayout=tableLayout;fixedRows=1;rowLines=0;fontStyle=1;align=center;resizeLast=1;fontFamily=Helvetica;fontSize=14;rounded=1;shadow=0;snapToPoint=0;fixDash=0;metaEdit=0;backgroundOutline=0;comic=0;" parent="1" vertex="1">
          <mxGeometry x="500" y="90" width="400" height="120" as="geometry" />
        </mxCell>
        <mxCell id="wmbltMZWieqaxzGeqLHv-211" value="" style="shape=tableRow;horizontal=0;startSize=0;swimlaneHead=0;swimlaneBody=0;fillColor=none;collapsible=0;dropTarget=0;points=[[0,0.5],[1,0.5]];portConstraint=eastwest;top=0;left=0;right=0;bottom=1;fontFamily=Helvetica;fontSize=14;rounded=1;shadow=0;snapToPoint=0;fixDash=0;metaEdit=0;backgroundOutline=0;comic=0;" parent="wmbltMZWieqaxzGeqLHv-210" vertex="1">
          <mxGeometry y="30" width="400" height="30" as="geometry" />
        </mxCell>
        <mxCell id="wmbltMZWieqaxzGeqLHv-212" value="PK" style="shape=partialRectangle;connectable=0;fillColor=none;top=0;left=0;bottom=0;right=0;fontStyle=1;overflow=hidden;fontFamily=Helvetica;fontSize=14;rounded=1;shadow=0;snapToPoint=0;fixDash=0;metaEdit=0;backgroundOutline=0;comic=0;" parent="wmbltMZWieqaxzGeqLHv-211" vertex="1">
          <mxGeometry width="40" height="30" as="geometry">
            <mxRectangle width="40" height="30" as="alternateBounds" />
          </mxGeometry>
        </mxCell>
        <mxCell id="wmbltMZWieqaxzGeqLHv-213" value="id" style="shape=partialRectangle;connectable=0;fillColor=none;top=0;left=0;bottom=0;right=0;align=left;spacingLeft=6;fontStyle=5;overflow=hidden;fontFamily=Helvetica;fontSize=14;rounded=1;shadow=0;snapToPoint=0;fixDash=0;metaEdit=0;backgroundOutline=0;comic=0;" parent="wmbltMZWieqaxzGeqLHv-211" vertex="1">
          <mxGeometry x="40" width="160" height="30" as="geometry">
            <mxRectangle width="160" height="30" as="alternateBounds" />
          </mxGeometry>
        </mxCell>
        <mxCell id="wmbltMZWieqaxzGeqLHv-214" value="uuid" style="shape=partialRectangle;connectable=0;fillColor=none;top=0;left=0;bottom=0;right=0;align=left;spacingLeft=6;fontStyle=5;overflow=hidden;fontFamily=Helvetica;fontSize=14;rounded=1;shadow=0;snapToPoint=0;fixDash=0;metaEdit=0;backgroundOutline=0;comic=0;" parent="wmbltMZWieqaxzGeqLHv-211" vertex="1">
          <mxGeometry x="200" width="200" height="30" as="geometry">
            <mxRectangle width="200" height="30" as="alternateBounds" />
          </mxGeometry>
        </mxCell>
        <mxCell id="wmbltMZWieqaxzGeqLHv-215" value="" style="shape=tableRow;horizontal=0;startSize=0;swimlaneHead=0;swimlaneBody=0;fillColor=none;collapsible=0;dropTarget=0;points=[[0,0.5],[1,0.5]];portConstraint=eastwest;top=0;left=0;right=0;bottom=0;fontFamily=Helvetica;fontSize=14;rounded=1;shadow=0;snapToPoint=0;fixDash=0;metaEdit=0;backgroundOutline=0;comic=0;" parent="wmbltMZWieqaxzGeqLHv-210" vertex="1">
          <mxGeometry y="60" width="400" height="30" as="geometry" />
        </mxCell>
        <mxCell id="wmbltMZWieqaxzGeqLHv-216" value="FK" style="shape=partialRectangle;connectable=0;fillColor=none;top=0;left=0;bottom=0;right=0;editable=1;overflow=hidden;fontFamily=Helvetica;fontSize=14;rounded=1;shadow=0;snapToPoint=0;fixDash=0;metaEdit=0;backgroundOutline=0;comic=0;" parent="wmbltMZWieqaxzGeqLHv-215" vertex="1">
          <mxGeometry width="40" height="30" as="geometry">
            <mxRectangle width="40" height="30" as="alternateBounds" />
          </mxGeometry>
        </mxCell>
        <mxCell id="wmbltMZWieqaxzGeqLHv-217" value="issue_id" style="shape=partialRectangle;connectable=0;fillColor=none;top=0;left=0;bottom=0;right=0;align=left;spacingLeft=6;overflow=hidden;fontFamily=Helvetica;fontSize=14;rounded=1;shadow=0;snapToPoint=0;fixDash=0;metaEdit=0;backgroundOutline=0;comic=0;" parent="wmbltMZWieqaxzGeqLHv-215" vertex="1">
          <mxGeometry x="40" width="160" height="30" as="geometry">
            <mxRectangle width="160" height="30" as="alternateBounds" />
          </mxGeometry>
        </mxCell>
        <mxCell id="wmbltMZWieqaxzGeqLHv-218" value="uuid" style="shape=partialRectangle;connectable=0;fillColor=none;top=0;left=0;bottom=0;right=0;align=left;spacingLeft=6;overflow=hidden;fontFamily=Helvetica;fontSize=14;rounded=1;shadow=0;snapToPoint=0;fixDash=0;metaEdit=0;backgroundOutline=0;comic=0;" parent="wmbltMZWieqaxzGeqLHv-215" vertex="1">
          <mxGeometry x="200" width="200" height="30" as="geometry">
            <mxRectangle width="200" height="30" as="alternateBounds" />
          </mxGeometry>
        </mxCell>
        <mxCell id="wmbltMZWieqaxzGeqLHv-219" value="" style="shape=tableRow;horizontal=0;startSize=0;swimlaneHead=0;swimlaneBody=0;fillColor=none;collapsible=0;dropTarget=0;points=[[0,0.5],[1,0.5]];portConstraint=eastwest;top=0;left=0;right=0;bottom=0;fontFamily=Helvetica;fontSize=14;rounded=1;shadow=0;snapToPoint=0;fixDash=0;metaEdit=0;backgroundOutline=0;comic=0;" parent="wmbltMZWieqaxzGeqLHv-210" vertex="1">
          <mxGeometry y="90" width="400" height="30" as="geometry" />
        </mxCell>
        <mxCell id="wmbltMZWieqaxzGeqLHv-220" value="FK" style="shape=partialRectangle;connectable=0;fillColor=none;top=0;left=0;bottom=0;right=0;editable=1;overflow=hidden;fontFamily=Helvetica;fontSize=14;rounded=1;shadow=0;snapToPoint=0;fixDash=0;metaEdit=0;backgroundOutline=0;comic=0;" parent="wmbltMZWieqaxzGeqLHv-219" vertex="1">
          <mxGeometry width="40" height="30" as="geometry">
            <mxRectangle width="40" height="30" as="alternateBounds" />
          </mxGeometry>
        </mxCell>
        <mxCell id="wmbltMZWieqaxzGeqLHv-221" value="user_id" style="shape=partialRectangle;connectable=0;fillColor=none;top=0;left=0;bottom=0;right=0;align=left;spacingLeft=6;overflow=hidden;fontFamily=Helvetica;fontSize=14;rounded=1;shadow=0;snapToPoint=0;fixDash=0;metaEdit=0;backgroundOutline=0;comic=0;" parent="wmbltMZWieqaxzGeqLHv-219" vertex="1">
          <mxGeometry x="40" width="160" height="30" as="geometry">
            <mxRectangle width="160" height="30" as="alternateBounds" />
          </mxGeometry>
        </mxCell>
        <mxCell id="wmbltMZWieqaxzGeqLHv-222" value="uuid" style="shape=partialRectangle;connectable=0;fillColor=none;top=0;left=0;bottom=0;right=0;align=left;spacingLeft=6;overflow=hidden;fontFamily=Helvetica;fontSize=14;rounded=1;shadow=0;snapToPoint=0;fixDash=0;metaEdit=0;backgroundOutline=0;comic=0;" parent="wmbltMZWieqaxzGeqLHv-219" vertex="1">
          <mxGeometry x="200" width="200" height="30" as="geometry">
            <mxRectangle width="200" height="30" as="alternateBounds" />
          </mxGeometry>
        </mxCell>
        <mxCell id="wmbltMZWieqaxzGeqLHv-231" value="issue_attachments" style="shape=table;startSize=30;container=1;collapsible=1;childLayout=tableLayout;fixedRows=1;rowLines=0;fontStyle=1;align=center;resizeLast=1;fontFamily=Helvetica;fontSize=14;rounded=1;shadow=0;snapToPoint=0;fixDash=0;metaEdit=0;backgroundOutline=0;comic=0;" parent="1" vertex="1">
          <mxGeometry x="1480" y="240" width="400" height="300" as="geometry" />
        </mxCell>
        <mxCell id="wmbltMZWieqaxzGeqLHv-232" value="" style="shape=tableRow;horizontal=0;startSize=0;swimlaneHead=0;swimlaneBody=0;fillColor=none;collapsible=0;dropTarget=0;points=[[0,0.5],[1,0.5]];portConstraint=eastwest;top=0;left=0;right=0;bottom=1;fontFamily=Helvetica;fontSize=14;rounded=1;shadow=0;snapToPoint=0;fixDash=0;metaEdit=0;backgroundOutline=0;comic=0;" parent="wmbltMZWieqaxzGeqLHv-231" vertex="1">
          <mxGeometry y="30" width="400" height="30" as="geometry" />
        </mxCell>
        <mxCell id="wmbltMZWieqaxzGeqLHv-233" value="PK" style="shape=partialRectangle;connectable=0;fillColor=none;top=0;left=0;bottom=0;right=0;fontStyle=1;overflow=hidden;fontFamily=Helvetica;fontSize=14;rounded=1;shadow=0;snapToPoint=0;fixDash=0;metaEdit=0;backgroundOutline=0;comic=0;" parent="wmbltMZWieqaxzGeqLHv-232" vertex="1">
          <mxGeometry width="40" height="30" as="geometry">
            <mxRectangle width="40" height="30" as="alternateBounds" />
          </mxGeometry>
        </mxCell>
        <mxCell id="wmbltMZWieqaxzGeqLHv-234" value="id" style="shape=partialRectangle;connectable=0;fillColor=none;top=0;left=0;bottom=0;right=0;align=left;spacingLeft=6;fontStyle=5;overflow=hidden;fontFamily=Helvetica;fontSize=14;rounded=1;shadow=0;snapToPoint=0;fixDash=0;metaEdit=0;backgroundOutline=0;comic=0;" parent="wmbltMZWieqaxzGeqLHv-232" vertex="1">
          <mxGeometry x="40" width="160" height="30" as="geometry">
            <mxRectangle width="160" height="30" as="alternateBounds" />
          </mxGeometry>
        </mxCell>
        <mxCell id="wmbltMZWieqaxzGeqLHv-235" value="uuid" style="shape=partialRectangle;connectable=0;fillColor=none;top=0;left=0;bottom=0;right=0;align=left;spacingLeft=6;fontStyle=5;overflow=hidden;fontFamily=Helvetica;fontSize=14;rounded=1;shadow=0;snapToPoint=0;fixDash=0;metaEdit=0;backgroundOutline=0;comic=0;" parent="wmbltMZWieqaxzGeqLHv-232" vertex="1">
          <mxGeometry x="200" width="200" height="30" as="geometry">
            <mxRectangle width="200" height="30" as="alternateBounds" />
          </mxGeometry>
        </mxCell>
        <mxCell id="wmbltMZWieqaxzGeqLHv-236" value="" style="shape=tableRow;horizontal=0;startSize=0;swimlaneHead=0;swimlaneBody=0;fillColor=none;collapsible=0;dropTarget=0;points=[[0,0.5],[1,0.5]];portConstraint=eastwest;top=0;left=0;right=0;bottom=0;fontFamily=Helvetica;fontSize=14;rounded=1;shadow=0;snapToPoint=0;fixDash=0;metaEdit=0;backgroundOutline=0;comic=0;" parent="wmbltMZWieqaxzGeqLHv-231" vertex="1">
          <mxGeometry y="60" width="400" height="30" as="geometry" />
        </mxCell>
        <mxCell id="wmbltMZWieqaxzGeqLHv-237" value="FK" style="shape=partialRectangle;connectable=0;fillColor=none;top=0;left=0;bottom=0;right=0;editable=1;overflow=hidden;fontFamily=Helvetica;fontSize=14;rounded=1;shadow=0;snapToPoint=0;fixDash=0;metaEdit=0;backgroundOutline=0;comic=0;" parent="wmbltMZWieqaxzGeqLHv-236" vertex="1">
          <mxGeometry width="40" height="30" as="geometry">
            <mxRectangle width="40" height="30" as="alternateBounds" />
          </mxGeometry>
        </mxCell>
        <mxCell id="wmbltMZWieqaxzGeqLHv-238" value="issue_id " style="shape=partialRectangle;connectable=0;fillColor=none;top=0;left=0;bottom=0;right=0;align=left;spacingLeft=6;overflow=hidden;fontFamily=Helvetica;fontSize=14;rounded=1;shadow=0;snapToPoint=0;fixDash=0;metaEdit=0;backgroundOutline=0;comic=0;" parent="wmbltMZWieqaxzGeqLHv-236" vertex="1">
          <mxGeometry x="40" width="160" height="30" as="geometry">
            <mxRectangle width="160" height="30" as="alternateBounds" />
          </mxGeometry>
        </mxCell>
        <mxCell id="wmbltMZWieqaxzGeqLHv-239" value="UUid" style="shape=partialRectangle;connectable=0;fillColor=none;top=0;left=0;bottom=0;right=0;align=left;spacingLeft=6;overflow=hidden;fontFamily=Helvetica;fontSize=14;rounded=1;shadow=0;snapToPoint=0;fixDash=0;metaEdit=0;backgroundOutline=0;comic=0;" parent="wmbltMZWieqaxzGeqLHv-236" vertex="1">
          <mxGeometry x="200" width="200" height="30" as="geometry">
            <mxRectangle width="200" height="30" as="alternateBounds" />
          </mxGeometry>
        </mxCell>
        <mxCell id="wmbltMZWieqaxzGeqLHv-240" value="" style="shape=tableRow;horizontal=0;startSize=0;swimlaneHead=0;swimlaneBody=0;fillColor=none;collapsible=0;dropTarget=0;points=[[0,0.5],[1,0.5]];portConstraint=eastwest;top=0;left=0;right=0;bottom=0;fontFamily=Helvetica;fontSize=14;rounded=1;shadow=0;snapToPoint=0;fixDash=0;metaEdit=0;backgroundOutline=0;comic=0;" parent="wmbltMZWieqaxzGeqLHv-231" vertex="1">
          <mxGeometry y="90" width="400" height="30" as="geometry" />
        </mxCell>
        <mxCell id="wmbltMZWieqaxzGeqLHv-241" value="" style="shape=partialRectangle;connectable=0;fillColor=none;top=0;left=0;bottom=0;right=0;editable=1;overflow=hidden;fontFamily=Helvetica;fontSize=14;rounded=1;shadow=0;snapToPoint=0;fixDash=0;metaEdit=0;backgroundOutline=0;comic=0;" parent="wmbltMZWieqaxzGeqLHv-240" vertex="1">
          <mxGeometry width="40" height="30" as="geometry">
            <mxRectangle width="40" height="30" as="alternateBounds" />
          </mxGeometry>
        </mxCell>
        <mxCell id="wmbltMZWieqaxzGeqLHv-242" value="file_name" style="shape=partialRectangle;connectable=0;fillColor=none;top=0;left=0;bottom=0;right=0;align=left;spacingLeft=6;overflow=hidden;fontFamily=Helvetica;fontSize=14;rounded=1;shadow=0;snapToPoint=0;fixDash=0;metaEdit=0;backgroundOutline=0;comic=0;" parent="wmbltMZWieqaxzGeqLHv-240" vertex="1">
          <mxGeometry x="40" width="160" height="30" as="geometry">
            <mxRectangle width="160" height="30" as="alternateBounds" />
          </mxGeometry>
        </mxCell>
        <mxCell id="wmbltMZWieqaxzGeqLHv-243" value="varchar(255)" style="shape=partialRectangle;connectable=0;fillColor=none;top=0;left=0;bottom=0;right=0;align=left;spacingLeft=6;overflow=hidden;fontFamily=Helvetica;fontSize=14;rounded=1;shadow=0;snapToPoint=0;fixDash=0;metaEdit=0;backgroundOutline=0;comic=0;" parent="wmbltMZWieqaxzGeqLHv-240" vertex="1">
          <mxGeometry x="200" width="200" height="30" as="geometry">
            <mxRectangle width="200" height="30" as="alternateBounds" />
          </mxGeometry>
        </mxCell>
        <mxCell id="wmbltMZWieqaxzGeqLHv-244" value="" style="shape=tableRow;horizontal=0;startSize=0;swimlaneHead=0;swimlaneBody=0;fillColor=none;collapsible=0;dropTarget=0;points=[[0,0.5],[1,0.5]];portConstraint=eastwest;top=0;left=0;right=0;bottom=0;fontFamily=Helvetica;fontSize=14;rounded=1;shadow=0;snapToPoint=0;fixDash=0;metaEdit=0;backgroundOutline=0;comic=0;" parent="wmbltMZWieqaxzGeqLHv-231" vertex="1">
          <mxGeometry y="120" width="400" height="30" as="geometry" />
        </mxCell>
        <mxCell id="wmbltMZWieqaxzGeqLHv-245" value="" style="shape=partialRectangle;connectable=0;fillColor=none;top=0;left=0;bottom=0;right=0;editable=1;overflow=hidden;fontFamily=Helvetica;fontSize=14;rounded=1;shadow=0;snapToPoint=0;fixDash=0;metaEdit=0;backgroundOutline=0;comic=0;" parent="wmbltMZWieqaxzGeqLHv-244" vertex="1">
          <mxGeometry width="40" height="30" as="geometry">
            <mxRectangle width="40" height="30" as="alternateBounds" />
          </mxGeometry>
        </mxCell>
        <mxCell id="wmbltMZWieqaxzGeqLHv-246" value="file_type" style="shape=partialRectangle;connectable=0;fillColor=none;top=0;left=0;bottom=0;right=0;align=left;spacingLeft=6;overflow=hidden;shadow=0;fontFamily=Helvetica;fontSize=14;rounded=1;snapToPoint=0;fixDash=0;metaEdit=0;backgroundOutline=0;comic=0;" parent="wmbltMZWieqaxzGeqLHv-244" vertex="1">
          <mxGeometry x="40" width="160" height="30" as="geometry">
            <mxRectangle width="160" height="30" as="alternateBounds" />
          </mxGeometry>
        </mxCell>
        <mxCell id="wmbltMZWieqaxzGeqLHv-247" value="varchar(255)" style="shape=partialRectangle;connectable=0;fillColor=none;top=0;left=0;bottom=0;right=0;align=left;spacingLeft=6;overflow=hidden;shadow=0;fontFamily=Helvetica;fontSize=14;rounded=1;snapToPoint=0;fixDash=0;metaEdit=0;backgroundOutline=0;comic=0;" parent="wmbltMZWieqaxzGeqLHv-244" vertex="1">
          <mxGeometry x="200" width="200" height="30" as="geometry">
            <mxRectangle width="200" height="30" as="alternateBounds" />
          </mxGeometry>
        </mxCell>
        <mxCell id="wmbltMZWieqaxzGeqLHv-248" style="shape=tableRow;horizontal=0;startSize=0;swimlaneHead=0;swimlaneBody=0;fillColor=none;collapsible=0;dropTarget=0;points=[[0,0.5],[1,0.5]];portConstraint=eastwest;top=0;left=0;right=0;bottom=0;fontFamily=Helvetica;fontSize=14;rounded=1;shadow=0;snapToPoint=0;fixDash=0;metaEdit=0;backgroundOutline=0;comic=0;" parent="wmbltMZWieqaxzGeqLHv-231" vertex="1">
          <mxGeometry y="150" width="400" height="30" as="geometry" />
        </mxCell>
        <mxCell id="wmbltMZWieqaxzGeqLHv-249" value="" style="shape=partialRectangle;connectable=0;fillColor=none;top=0;left=0;bottom=0;right=0;editable=1;overflow=hidden;fontFamily=Helvetica;fontSize=14;rounded=1;shadow=0;snapToPoint=0;fixDash=0;metaEdit=0;backgroundOutline=0;comic=0;" parent="wmbltMZWieqaxzGeqLHv-248" vertex="1">
          <mxGeometry width="40" height="30" as="geometry">
            <mxRectangle width="40" height="30" as="alternateBounds" />
          </mxGeometry>
        </mxCell>
        <mxCell id="wmbltMZWieqaxzGeqLHv-250" value="file_size" style="shape=partialRectangle;connectable=0;fillColor=none;top=0;left=0;bottom=0;right=0;align=left;spacingLeft=6;overflow=hidden;shadow=0;fontFamily=Helvetica;fontSize=14;rounded=1;snapToPoint=0;fixDash=0;metaEdit=0;backgroundOutline=0;comic=0;" parent="wmbltMZWieqaxzGeqLHv-248" vertex="1">
          <mxGeometry x="40" width="160" height="30" as="geometry">
            <mxRectangle width="160" height="30" as="alternateBounds" />
          </mxGeometry>
        </mxCell>
        <mxCell id="wmbltMZWieqaxzGeqLHv-251" value="integer" style="shape=partialRectangle;connectable=0;fillColor=none;top=0;left=0;bottom=0;right=0;align=left;spacingLeft=6;overflow=hidden;shadow=0;fontFamily=Helvetica;fontSize=14;rounded=1;snapToPoint=0;fixDash=0;metaEdit=0;backgroundOutline=0;comic=0;" parent="wmbltMZWieqaxzGeqLHv-248" vertex="1">
          <mxGeometry x="200" width="200" height="30" as="geometry">
            <mxRectangle width="200" height="30" as="alternateBounds" />
          </mxGeometry>
        </mxCell>
        <mxCell id="wmbltMZWieqaxzGeqLHv-252" style="shape=tableRow;horizontal=0;startSize=0;swimlaneHead=0;swimlaneBody=0;fillColor=none;collapsible=0;dropTarget=0;points=[[0,0.5],[1,0.5]];portConstraint=eastwest;top=0;left=0;right=0;bottom=0;fontFamily=Helvetica;fontSize=14;rounded=1;shadow=0;snapToPoint=0;fixDash=0;metaEdit=0;backgroundOutline=0;comic=0;" parent="wmbltMZWieqaxzGeqLHv-231" vertex="1">
          <mxGeometry y="180" width="400" height="30" as="geometry" />
        </mxCell>
        <mxCell id="wmbltMZWieqaxzGeqLHv-253" value="" style="shape=partialRectangle;connectable=0;fillColor=none;top=0;left=0;bottom=0;right=0;editable=1;overflow=hidden;fontFamily=Helvetica;fontSize=14;rounded=1;shadow=0;snapToPoint=0;fixDash=0;metaEdit=0;backgroundOutline=0;comic=0;" parent="wmbltMZWieqaxzGeqLHv-252" vertex="1">
          <mxGeometry width="40" height="30" as="geometry">
            <mxRectangle width="40" height="30" as="alternateBounds" />
          </mxGeometry>
        </mxCell>
        <mxCell id="wmbltMZWieqaxzGeqLHv-254" value="file_path" style="shape=partialRectangle;connectable=0;fillColor=none;top=0;left=0;bottom=0;right=0;align=left;spacingLeft=6;overflow=hidden;shadow=0;fontFamily=Helvetica;fontSize=14;rounded=1;snapToPoint=0;fixDash=0;metaEdit=0;backgroundOutline=0;comic=0;" parent="wmbltMZWieqaxzGeqLHv-252" vertex="1">
          <mxGeometry x="40" width="160" height="30" as="geometry">
            <mxRectangle width="160" height="30" as="alternateBounds" />
          </mxGeometry>
        </mxCell>
        <mxCell id="wmbltMZWieqaxzGeqLHv-255" value="varchar(255)" style="shape=partialRectangle;connectable=0;fillColor=none;top=0;left=0;bottom=0;right=0;align=left;spacingLeft=6;overflow=hidden;shadow=0;fontFamily=Helvetica;fontSize=14;rounded=1;snapToPoint=0;fixDash=0;metaEdit=0;backgroundOutline=0;comic=0;" parent="wmbltMZWieqaxzGeqLHv-252" vertex="1">
          <mxGeometry x="200" width="200" height="30" as="geometry">
            <mxRectangle width="200" height="30" as="alternateBounds" />
          </mxGeometry>
        </mxCell>
        <mxCell id="wmbltMZWieqaxzGeqLHv-256" style="shape=tableRow;horizontal=0;startSize=0;swimlaneHead=0;swimlaneBody=0;fillColor=none;collapsible=0;dropTarget=0;points=[[0,0.5],[1,0.5]];portConstraint=eastwest;top=0;left=0;right=0;bottom=0;fontFamily=Helvetica;fontSize=14;rounded=1;shadow=0;snapToPoint=0;fixDash=0;metaEdit=0;backgroundOutline=0;comic=0;" parent="wmbltMZWieqaxzGeqLHv-231" vertex="1">
          <mxGeometry y="210" width="400" height="30" as="geometry" />
        </mxCell>
        <mxCell id="wmbltMZWieqaxzGeqLHv-257" value="" style="shape=partialRectangle;connectable=0;fillColor=none;top=0;left=0;bottom=0;right=0;editable=1;overflow=hidden;fontFamily=Helvetica;fontSize=14;rounded=1;shadow=0;snapToPoint=0;fixDash=0;metaEdit=0;backgroundOutline=0;comic=0;" parent="wmbltMZWieqaxzGeqLHv-256" vertex="1">
          <mxGeometry width="40" height="30" as="geometry">
            <mxRectangle width="40" height="30" as="alternateBounds" />
          </mxGeometry>
        </mxCell>
        <mxCell id="wmbltMZWieqaxzGeqLHv-258" value="uploaded_at" style="shape=partialRectangle;connectable=0;fillColor=none;top=0;left=0;bottom=0;right=0;align=left;spacingLeft=6;overflow=hidden;shadow=0;fontFamily=Helvetica;fontSize=14;rounded=1;snapToPoint=0;fixDash=0;metaEdit=0;backgroundOutline=0;comic=0;" parent="wmbltMZWieqaxzGeqLHv-256" vertex="1">
          <mxGeometry x="40" width="160" height="30" as="geometry">
            <mxRectangle width="160" height="30" as="alternateBounds" />
          </mxGeometry>
        </mxCell>
        <mxCell id="wmbltMZWieqaxzGeqLHv-259" value="timestamp with time zone" style="shape=partialRectangle;connectable=0;fillColor=none;top=0;left=0;bottom=0;right=0;align=left;spacingLeft=6;overflow=hidden;shadow=0;fontFamily=Helvetica;fontSize=14;rounded=1;snapToPoint=0;fixDash=0;metaEdit=0;backgroundOutline=0;comic=0;" parent="wmbltMZWieqaxzGeqLHv-256" vertex="1">
          <mxGeometry x="200" width="200" height="30" as="geometry">
            <mxRectangle width="200" height="30" as="alternateBounds" />
          </mxGeometry>
        </mxCell>
        <mxCell id="wmbltMZWieqaxzGeqLHv-260" style="shape=tableRow;horizontal=0;startSize=0;swimlaneHead=0;swimlaneBody=0;fillColor=none;collapsible=0;dropTarget=0;points=[[0,0.5],[1,0.5]];portConstraint=eastwest;top=0;left=0;right=0;bottom=0;fontFamily=Helvetica;fontSize=14;rounded=1;shadow=0;snapToPoint=0;fixDash=0;metaEdit=0;backgroundOutline=0;comic=0;" parent="wmbltMZWieqaxzGeqLHv-231" vertex="1">
          <mxGeometry y="240" width="400" height="30" as="geometry" />
        </mxCell>
        <mxCell id="wmbltMZWieqaxzGeqLHv-261" value="" style="shape=partialRectangle;connectable=0;fillColor=none;top=0;left=0;bottom=0;right=0;editable=1;overflow=hidden;fontFamily=Helvetica;fontSize=14;rounded=1;shadow=0;snapToPoint=0;fixDash=0;metaEdit=0;backgroundOutline=0;comic=0;" parent="wmbltMZWieqaxzGeqLHv-260" vertex="1">
          <mxGeometry width="40" height="30" as="geometry">
            <mxRectangle width="40" height="30" as="alternateBounds" />
          </mxGeometry>
        </mxCell>
        <mxCell id="wmbltMZWieqaxzGeqLHv-262" value="description" style="shape=partialRectangle;connectable=0;fillColor=none;top=0;left=0;bottom=0;right=0;align=left;spacingLeft=6;overflow=hidden;shadow=0;fontFamily=Helvetica;fontSize=14;rounded=1;snapToPoint=0;fixDash=0;metaEdit=0;backgroundOutline=0;comic=0;" parent="wmbltMZWieqaxzGeqLHv-260" vertex="1">
          <mxGeometry x="40" width="160" height="30" as="geometry">
            <mxRectangle width="160" height="30" as="alternateBounds" />
          </mxGeometry>
        </mxCell>
        <mxCell id="wmbltMZWieqaxzGeqLHv-263" value="varchar(3000)" style="shape=partialRectangle;connectable=0;fillColor=none;top=0;left=0;bottom=0;right=0;align=left;spacingLeft=6;overflow=hidden;shadow=0;fontFamily=Helvetica;fontSize=14;rounded=1;snapToPoint=0;fixDash=0;metaEdit=0;backgroundOutline=0;comic=0;" parent="wmbltMZWieqaxzGeqLHv-260" vertex="1">
          <mxGeometry x="200" width="200" height="30" as="geometry">
            <mxRectangle width="200" height="30" as="alternateBounds" />
          </mxGeometry>
        </mxCell>
        <mxCell id="wmbltMZWieqaxzGeqLHv-264" style="shape=tableRow;horizontal=0;startSize=0;swimlaneHead=0;swimlaneBody=0;fillColor=none;collapsible=0;dropTarget=0;points=[[0,0.5],[1,0.5]];portConstraint=eastwest;top=0;left=0;right=0;bottom=0;fontFamily=Helvetica;fontSize=14;rounded=1;shadow=0;snapToPoint=0;fixDash=0;metaEdit=0;backgroundOutline=0;comic=0;" parent="wmbltMZWieqaxzGeqLHv-231" vertex="1">
          <mxGeometry y="270" width="400" height="30" as="geometry" />
        </mxCell>
        <mxCell id="wmbltMZWieqaxzGeqLHv-265" value="FK" style="shape=partialRectangle;connectable=0;fillColor=none;top=0;left=0;bottom=0;right=0;editable=1;overflow=hidden;fontFamily=Helvetica;fontSize=14;rounded=1;shadow=0;snapToPoint=0;fixDash=0;metaEdit=0;backgroundOutline=0;comic=0;" parent="wmbltMZWieqaxzGeqLHv-264" vertex="1">
          <mxGeometry width="40" height="30" as="geometry">
            <mxRectangle width="40" height="30" as="alternateBounds" />
          </mxGeometry>
        </mxCell>
        <mxCell id="wmbltMZWieqaxzGeqLHv-266" value="owner_id" style="shape=partialRectangle;connectable=0;fillColor=none;top=0;left=0;bottom=0;right=0;align=left;spacingLeft=6;overflow=hidden;shadow=0;fontFamily=Helvetica;fontSize=14;rounded=1;snapToPoint=0;fixDash=0;metaEdit=0;backgroundOutline=0;comic=0;" parent="wmbltMZWieqaxzGeqLHv-264" vertex="1">
          <mxGeometry x="40" width="160" height="30" as="geometry">
            <mxRectangle width="160" height="30" as="alternateBounds" />
          </mxGeometry>
        </mxCell>
        <mxCell id="wmbltMZWieqaxzGeqLHv-267" value="uuid" style="shape=partialRectangle;connectable=0;fillColor=none;top=0;left=0;bottom=0;right=0;align=left;spacingLeft=6;overflow=hidden;shadow=0;fontFamily=Helvetica;fontSize=14;rounded=1;snapToPoint=0;fixDash=0;metaEdit=0;backgroundOutline=0;comic=0;" parent="wmbltMZWieqaxzGeqLHv-264" vertex="1">
          <mxGeometry x="200" width="200" height="30" as="geometry">
            <mxRectangle width="200" height="30" as="alternateBounds" />
          </mxGeometry>
        </mxCell>
        <mxCell id="wmbltMZWieqaxzGeqLHv-276" value="&lt;b style=&quot;font-size: 14px;&quot;&gt;users&lt;/b&gt;" style="shape=table;startSize=30;container=1;collapsible=1;childLayout=tableLayout;fixedRows=1;rowLines=0;fontStyle=0;align=center;resizeLast=1;fontSize=14;fontFamily=Helvetica;html=1;whiteSpace=wrap;labelBorderColor=none;labelBackgroundColor=none;shadow=0;spacing=2;swimlaneFillColor=none;rounded=1;swimlaneLine=1;fillColor=none;strokeColor=default;snapToPoint=0;fixDash=0;metaEdit=0;backgroundOutline=0;comic=0;" parent="1" vertex="1">
          <mxGeometry y="150" width="400" height="210" as="geometry" />
        </mxCell>
        <mxCell id="wmbltMZWieqaxzGeqLHv-277" value="" style="shape=tableRow;horizontal=0;startSize=0;swimlaneHead=0;swimlaneBody=0;fillColor=none;collapsible=0;dropTarget=0;points=[[0,0.5],[1,0.5]];portConstraint=eastwest;top=0;left=0;right=0;bottom=1;fontSize=14;fontFamily=Helvetica;html=1;whiteSpace=wrap;labelBorderColor=none;labelBackgroundColor=none;swimlaneFillColor=default;shadow=0;swimlaneLine=1;rounded=1;strokeColor=default;snapToPoint=0;fixDash=0;metaEdit=0;backgroundOutline=0;comic=0;" parent="wmbltMZWieqaxzGeqLHv-276" vertex="1">
          <mxGeometry y="30" width="400" height="30" as="geometry" />
        </mxCell>
        <mxCell id="wmbltMZWieqaxzGeqLHv-278" value="PK" style="shape=partialRectangle;connectable=0;fillColor=none;top=0;left=0;bottom=0;right=0;fontStyle=1;overflow=hidden;fontSize=14;fontFamily=Helvetica;html=1;whiteSpace=wrap;labelBorderColor=none;labelBackgroundColor=none;swimlaneFillColor=default;shadow=0;swimlaneLine=1;rounded=1;strokeColor=default;snapToPoint=0;fixDash=0;metaEdit=0;backgroundOutline=0;comic=0;" parent="wmbltMZWieqaxzGeqLHv-277" vertex="1">
          <mxGeometry width="40.000000000000455" height="30" as="geometry">
            <mxRectangle width="40.000000000000455" height="30" as="alternateBounds" />
          </mxGeometry>
        </mxCell>
        <mxCell id="wmbltMZWieqaxzGeqLHv-279" value="id" style="shape=partialRectangle;connectable=0;fillColor=none;top=0;left=0;bottom=0;right=0;align=left;spacingLeft=6;fontStyle=5;overflow=hidden;fontSize=14;fontFamily=Helvetica;html=1;whiteSpace=wrap;labelBorderColor=none;labelBackgroundColor=none;swimlaneFillColor=default;shadow=0;swimlaneLine=1;rounded=1;strokeColor=default;snapToPoint=0;fixDash=0;metaEdit=0;backgroundOutline=0;comic=0;" parent="wmbltMZWieqaxzGeqLHv-277" vertex="1">
          <mxGeometry x="40.000000000000455" width="159.99999999999955" height="30" as="geometry">
            <mxRectangle width="159.99999999999955" height="30" as="alternateBounds" />
          </mxGeometry>
        </mxCell>
        <mxCell id="wmbltMZWieqaxzGeqLHv-280" value="UUid:I:U" style="shape=partialRectangle;connectable=0;fillColor=none;top=0;left=0;bottom=0;right=0;align=left;spacingLeft=6;fontStyle=5;overflow=hidden;fontSize=14;fontFamily=Helvetica;html=1;whiteSpace=wrap;labelBorderColor=none;labelBackgroundColor=none;swimlaneFillColor=default;shadow=0;swimlaneLine=1;rounded=1;strokeColor=default;snapToPoint=0;fixDash=0;metaEdit=0;backgroundOutline=0;comic=0;" parent="wmbltMZWieqaxzGeqLHv-277" vertex="1">
          <mxGeometry x="200" width="200" height="30" as="geometry">
            <mxRectangle width="200" height="30" as="alternateBounds" />
          </mxGeometry>
        </mxCell>
        <mxCell id="wmbltMZWieqaxzGeqLHv-281" value="" style="shape=tableRow;horizontal=0;startSize=0;swimlaneHead=0;swimlaneBody=0;fillColor=none;collapsible=0;dropTarget=0;points=[[0,0.5],[1,0.5]];portConstraint=eastwest;top=0;left=0;right=0;bottom=0;fontSize=14;fontFamily=Helvetica;html=1;whiteSpace=wrap;labelBorderColor=none;labelBackgroundColor=none;swimlaneFillColor=default;shadow=0;swimlaneLine=1;rounded=1;strokeColor=default;snapToPoint=0;fixDash=0;metaEdit=0;backgroundOutline=0;comic=0;" parent="wmbltMZWieqaxzGeqLHv-276" vertex="1">
          <mxGeometry y="60" width="400" height="30" as="geometry" />
        </mxCell>
        <mxCell id="wmbltMZWieqaxzGeqLHv-282" value="" style="shape=partialRectangle;connectable=0;fillColor=none;top=0;left=0;bottom=0;right=0;editable=1;overflow=hidden;fontSize=14;fontFamily=Helvetica;html=1;whiteSpace=wrap;labelBorderColor=none;labelBackgroundColor=none;swimlaneFillColor=default;shadow=0;swimlaneLine=1;rounded=1;strokeColor=default;snapToPoint=0;fixDash=0;metaEdit=0;backgroundOutline=0;comic=0;" parent="wmbltMZWieqaxzGeqLHv-281" vertex="1">
          <mxGeometry width="40.000000000000455" height="30" as="geometry">
            <mxRectangle width="40.000000000000455" height="30" as="alternateBounds" />
          </mxGeometry>
        </mxCell>
        <mxCell id="wmbltMZWieqaxzGeqLHv-283" value="email" style="shape=partialRectangle;connectable=0;fillColor=none;top=0;left=0;bottom=0;right=0;align=left;spacingLeft=6;overflow=hidden;fontSize=14;fontFamily=Helvetica;html=1;whiteSpace=wrap;labelBorderColor=none;labelBackgroundColor=none;swimlaneFillColor=default;shadow=0;swimlaneLine=1;rounded=1;strokeColor=default;snapToPoint=0;fixDash=0;metaEdit=0;backgroundOutline=0;comic=0;" parent="wmbltMZWieqaxzGeqLHv-281" vertex="1">
          <mxGeometry x="40.000000000000455" width="159.99999999999955" height="30" as="geometry">
            <mxRectangle width="159.99999999999955" height="30" as="alternateBounds" />
          </mxGeometry>
        </mxCell>
        <mxCell id="wmbltMZWieqaxzGeqLHv-284" value="Text:U" style="shape=partialRectangle;connectable=0;fillColor=none;top=0;left=0;bottom=0;right=0;align=left;spacingLeft=6;overflow=hidden;fontSize=14;fontFamily=Helvetica;html=1;whiteSpace=wrap;labelBorderColor=none;labelBackgroundColor=none;swimlaneFillColor=default;shadow=0;swimlaneLine=1;rounded=1;strokeColor=default;snapToPoint=0;fixDash=0;metaEdit=0;backgroundOutline=0;comic=0;" parent="wmbltMZWieqaxzGeqLHv-281" vertex="1">
          <mxGeometry x="200" width="200" height="30" as="geometry">
            <mxRectangle width="200" height="30" as="alternateBounds" />
          </mxGeometry>
        </mxCell>
        <mxCell id="wmbltMZWieqaxzGeqLHv-285" style="shape=tableRow;horizontal=0;startSize=0;swimlaneHead=0;swimlaneBody=0;fillColor=none;collapsible=0;dropTarget=0;points=[[0,0.5],[1,0.5]];portConstraint=eastwest;top=0;left=0;right=0;bottom=0;fontSize=14;fontFamily=Helvetica;html=1;whiteSpace=wrap;labelBorderColor=none;labelBackgroundColor=none;swimlaneFillColor=default;shadow=0;swimlaneLine=1;rounded=1;strokeColor=default;snapToPoint=0;fixDash=0;metaEdit=0;backgroundOutline=0;comic=0;" parent="wmbltMZWieqaxzGeqLHv-276" vertex="1">
          <mxGeometry y="90" width="400" height="30" as="geometry" />
        </mxCell>
        <mxCell id="wmbltMZWieqaxzGeqLHv-286" style="shape=partialRectangle;connectable=0;fillColor=none;top=0;left=0;bottom=0;right=0;editable=1;overflow=hidden;fontSize=14;fontFamily=Helvetica;html=1;whiteSpace=wrap;labelBorderColor=none;labelBackgroundColor=none;swimlaneFillColor=default;shadow=0;swimlaneLine=1;rounded=1;strokeColor=default;snapToPoint=0;fixDash=0;metaEdit=0;backgroundOutline=0;comic=0;" parent="wmbltMZWieqaxzGeqLHv-285" vertex="1">
          <mxGeometry width="40.000000000000455" height="30" as="geometry">
            <mxRectangle width="40.000000000000455" height="30" as="alternateBounds" />
          </mxGeometry>
        </mxCell>
        <mxCell id="wmbltMZWieqaxzGeqLHv-287" value="default_workspace_id" style="shape=partialRectangle;connectable=0;fillColor=none;top=0;left=0;bottom=0;right=0;align=left;spacingLeft=6;overflow=hidden;fontSize=14;fontFamily=Helvetica;html=1;whiteSpace=wrap;labelBorderColor=none;labelBackgroundColor=none;swimlaneFillColor=default;shadow=0;swimlaneLine=1;rounded=1;strokeColor=default;snapToPoint=0;fixDash=0;metaEdit=0;backgroundOutline=0;comic=0;" parent="wmbltMZWieqaxzGeqLHv-285" vertex="1">
          <mxGeometry x="40.000000000000455" width="159.99999999999955" height="30" as="geometry">
            <mxRectangle width="159.99999999999955" height="30" as="alternateBounds" />
          </mxGeometry>
        </mxCell>
        <mxCell id="wmbltMZWieqaxzGeqLHv-288" value="UUid" style="shape=partialRectangle;connectable=0;fillColor=none;top=0;left=0;bottom=0;right=0;align=left;spacingLeft=6;overflow=hidden;fontSize=14;fontFamily=Helvetica;html=1;whiteSpace=wrap;labelBorderColor=none;labelBackgroundColor=none;swimlaneFillColor=default;shadow=0;swimlaneLine=1;rounded=1;strokeColor=default;snapToPoint=0;fixDash=0;metaEdit=0;backgroundOutline=0;comic=0;" parent="wmbltMZWieqaxzGeqLHv-285" vertex="1">
          <mxGeometry x="200" width="200" height="30" as="geometry">
            <mxRectangle width="200" height="30" as="alternateBounds" />
          </mxGeometry>
        </mxCell>
        <mxCell id="wmbltMZWieqaxzGeqLHv-289" value="" style="shape=tableRow;horizontal=0;startSize=0;swimlaneHead=0;swimlaneBody=0;fillColor=none;collapsible=0;dropTarget=0;points=[[0,0.5],[1,0.5]];portConstraint=eastwest;top=0;left=0;right=0;bottom=0;fontSize=14;fontFamily=Helvetica;html=1;whiteSpace=wrap;labelBorderColor=none;labelBackgroundColor=none;swimlaneFillColor=default;shadow=0;swimlaneLine=1;rounded=1;strokeColor=default;snapToPoint=0;fixDash=0;metaEdit=0;backgroundOutline=0;comic=0;" parent="wmbltMZWieqaxzGeqLHv-276" vertex="1">
          <mxGeometry y="120" width="400" height="30" as="geometry" />
        </mxCell>
        <mxCell id="wmbltMZWieqaxzGeqLHv-290" value="" style="shape=partialRectangle;connectable=0;fillColor=none;top=0;left=0;bottom=0;right=0;editable=1;overflow=hidden;fontSize=14;fontFamily=Helvetica;html=1;whiteSpace=wrap;labelBorderColor=none;labelBackgroundColor=none;swimlaneFillColor=default;shadow=0;swimlaneLine=1;rounded=1;strokeColor=default;snapToPoint=0;fixDash=0;metaEdit=0;backgroundOutline=0;comic=0;" parent="wmbltMZWieqaxzGeqLHv-289" vertex="1">
          <mxGeometry width="40.000000000000455" height="30" as="geometry">
            <mxRectangle width="40.000000000000455" height="30" as="alternateBounds" />
          </mxGeometry>
        </mxCell>
        <mxCell id="wmbltMZWieqaxzGeqLHv-291" value="is_email_verified" style="shape=partialRectangle;connectable=0;fillColor=none;top=0;left=0;bottom=0;right=0;align=left;spacingLeft=6;overflow=hidden;fontSize=14;fontFamily=Helvetica;html=1;whiteSpace=wrap;labelBorderColor=none;labelBackgroundColor=none;swimlaneFillColor=default;shadow=0;swimlaneLine=1;rounded=1;strokeColor=default;snapToPoint=0;fixDash=0;metaEdit=0;backgroundOutline=0;comic=0;" parent="wmbltMZWieqaxzGeqLHv-289" vertex="1">
          <mxGeometry x="40.000000000000455" width="159.99999999999955" height="30" as="geometry">
            <mxRectangle width="159.99999999999955" height="30" as="alternateBounds" />
          </mxGeometry>
        </mxCell>
        <mxCell id="wmbltMZWieqaxzGeqLHv-292" value="Boolean" style="shape=partialRectangle;connectable=0;fillColor=none;top=0;left=0;bottom=0;right=0;align=left;spacingLeft=6;overflow=hidden;fontSize=14;fontFamily=Helvetica;html=1;whiteSpace=wrap;labelBorderColor=none;labelBackgroundColor=none;swimlaneFillColor=default;shadow=0;swimlaneLine=1;rounded=1;strokeColor=default;snapToPoint=0;fixDash=0;metaEdit=0;backgroundOutline=0;comic=0;" parent="wmbltMZWieqaxzGeqLHv-289" vertex="1">
          <mxGeometry x="200" width="200" height="30" as="geometry">
            <mxRectangle width="200" height="30" as="alternateBounds" />
          </mxGeometry>
        </mxCell>
        <mxCell id="wmbltMZWieqaxzGeqLHv-297" style="shape=tableRow;horizontal=0;startSize=0;swimlaneHead=0;swimlaneBody=0;fillColor=none;collapsible=0;dropTarget=0;points=[[0,0.5],[1,0.5]];portConstraint=eastwest;top=0;left=0;right=0;bottom=0;fontSize=14;fontFamily=Helvetica;html=1;whiteSpace=wrap;labelBorderColor=none;labelBackgroundColor=none;swimlaneFillColor=default;shadow=0;swimlaneLine=1;rounded=1;strokeColor=default;snapToPoint=0;fixDash=0;metaEdit=0;backgroundOutline=0;comic=0;" parent="wmbltMZWieqaxzGeqLHv-276" vertex="1">
          <mxGeometry y="150" width="400" height="30" as="geometry" />
        </mxCell>
        <mxCell id="wmbltMZWieqaxzGeqLHv-298" style="shape=partialRectangle;connectable=0;fillColor=none;top=0;left=0;bottom=0;right=0;editable=1;overflow=hidden;fontSize=14;fontFamily=Helvetica;html=1;whiteSpace=wrap;labelBorderColor=none;labelBackgroundColor=none;swimlaneFillColor=default;shadow=0;swimlaneLine=1;rounded=1;strokeColor=default;snapToPoint=0;fixDash=0;metaEdit=0;backgroundOutline=0;comic=0;" parent="wmbltMZWieqaxzGeqLHv-297" vertex="1">
          <mxGeometry width="40.000000000000455" height="30" as="geometry">
            <mxRectangle width="40.000000000000455" height="30" as="alternateBounds" />
          </mxGeometry>
        </mxCell>
        <mxCell id="wmbltMZWieqaxzGeqLHv-299" value="display_name" style="shape=partialRectangle;connectable=0;fillColor=none;top=0;left=0;bottom=0;right=0;align=left;spacingLeft=6;overflow=hidden;fontSize=14;fontFamily=Helvetica;html=1;whiteSpace=wrap;labelBorderColor=none;labelBackgroundColor=none;swimlaneFillColor=default;shadow=0;swimlaneLine=1;rounded=1;strokeColor=default;snapToPoint=0;fixDash=0;metaEdit=0;backgroundOutline=0;comic=0;" parent="wmbltMZWieqaxzGeqLHv-297" vertex="1">
          <mxGeometry x="40.000000000000455" width="159.99999999999955" height="30" as="geometry">
            <mxRectangle width="159.99999999999955" height="30" as="alternateBounds" />
          </mxGeometry>
        </mxCell>
        <mxCell id="wmbltMZWieqaxzGeqLHv-300" value="Text" style="shape=partialRectangle;connectable=0;fillColor=none;top=0;left=0;bottom=0;right=0;align=left;spacingLeft=6;overflow=hidden;fontSize=14;fontFamily=Helvetica;html=1;whiteSpace=wrap;labelBorderColor=none;labelBackgroundColor=none;swimlaneFillColor=default;shadow=0;swimlaneLine=1;rounded=1;strokeColor=default;snapToPoint=0;fixDash=0;metaEdit=0;backgroundOutline=0;comic=0;" parent="wmbltMZWieqaxzGeqLHv-297" vertex="1">
          <mxGeometry x="200" width="200" height="30" as="geometry">
            <mxRectangle width="200" height="30" as="alternateBounds" />
          </mxGeometry>
        </mxCell>
        <mxCell id="wmbltMZWieqaxzGeqLHv-305" style="shape=tableRow;horizontal=0;startSize=0;swimlaneHead=0;swimlaneBody=0;fillColor=none;collapsible=0;dropTarget=0;points=[[0,0.5],[1,0.5]];portConstraint=eastwest;top=0;left=0;right=0;bottom=0;fontSize=14;fontFamily=Helvetica;html=1;whiteSpace=wrap;labelBorderColor=none;labelBackgroundColor=none;swimlaneFillColor=default;shadow=0;swimlaneLine=1;rounded=1;strokeColor=default;snapToPoint=0;fixDash=0;metaEdit=0;backgroundOutline=0;comic=0;" parent="wmbltMZWieqaxzGeqLHv-276" vertex="1">
          <mxGeometry y="180" width="400" height="30" as="geometry" />
        </mxCell>
        <mxCell id="wmbltMZWieqaxzGeqLHv-306" style="shape=partialRectangle;connectable=0;fillColor=none;top=0;left=0;bottom=0;right=0;editable=1;overflow=hidden;fontSize=14;fontFamily=Helvetica;html=1;whiteSpace=wrap;labelBorderColor=none;labelBackgroundColor=none;swimlaneFillColor=default;shadow=0;swimlaneLine=1;rounded=1;strokeColor=default;snapToPoint=0;fixDash=0;metaEdit=0;backgroundOutline=0;comic=0;" parent="wmbltMZWieqaxzGeqLHv-305" vertex="1">
          <mxGeometry width="40.000000000000455" height="30" as="geometry">
            <mxRectangle width="40.000000000000455" height="30" as="alternateBounds" />
          </mxGeometry>
        </mxCell>
        <mxCell id="wmbltMZWieqaxzGeqLHv-307" value="photo_url" style="shape=partialRectangle;connectable=0;fillColor=none;top=0;left=0;bottom=0;right=0;align=left;spacingLeft=6;overflow=hidden;fontSize=14;fontFamily=Helvetica;html=1;whiteSpace=wrap;labelBorderColor=none;labelBackgroundColor=none;swimlaneFillColor=default;shadow=0;swimlaneLine=1;rounded=1;strokeColor=default;snapToPoint=0;fixDash=0;metaEdit=0;backgroundOutline=0;comic=0;" parent="wmbltMZWieqaxzGeqLHv-305" vertex="1">
          <mxGeometry x="40.000000000000455" width="159.99999999999955" height="30" as="geometry">
            <mxRectangle width="159.99999999999955" height="30" as="alternateBounds" />
          </mxGeometry>
        </mxCell>
        <mxCell id="wmbltMZWieqaxzGeqLHv-308" value="Text:N" style="shape=partialRectangle;connectable=0;fillColor=none;top=0;left=0;bottom=0;right=0;align=left;spacingLeft=6;overflow=hidden;fontSize=14;fontFamily=Helvetica;html=1;whiteSpace=wrap;labelBorderColor=none;labelBackgroundColor=none;swimlaneFillColor=default;shadow=0;swimlaneLine=1;rounded=1;strokeColor=default;snapToPoint=0;fixDash=0;metaEdit=0;backgroundOutline=0;comic=0;" parent="wmbltMZWieqaxzGeqLHv-305" vertex="1">
          <mxGeometry x="200" width="200" height="30" as="geometry">
            <mxRectangle width="200" height="30" as="alternateBounds" />
          </mxGeometry>
        </mxCell>
        <mxCell id="5njlRq8Z1DpFe0fEJFgZ-1" style="edgeStyle=orthogonalEdgeStyle;rounded=1;orthogonalLoop=1;jettySize=auto;html=1;exitX=1;exitY=0.5;exitDx=0;exitDy=0;entryX=0;entryY=0.5;entryDx=0;entryDy=0;fontSize=12;startSize=8;endSize=8;startArrow=ERoneToMany;startFill=0;endArrow=ERmandOne;endFill=0;fontFamily=Helvetica;shadow=0;snapToPoint=0;fixDash=0;metaEdit=0;backgroundOutline=0;comic=0;" parent="1" source="wmbltMZWieqaxzGeqLHv-215" target="wmbltMZWieqaxzGeqLHv-58" edge="1">
          <mxGeometry relative="1" as="geometry" />
        </mxCell>
        <mxCell id="5J2XGrj4s4jfsyrbcdtI-1" value="issue_tasks" style="shape=table;startSize=30;container=1;collapsible=1;childLayout=tableLayout;fixedRows=1;rowLines=0;fontStyle=1;align=center;resizeLast=1;fontFamily=Helvetica;fontSize=14;rounded=1;shadow=0;snapToPoint=0;fixDash=0;metaEdit=0;backgroundOutline=0;comic=0;" parent="1" vertex="1">
          <mxGeometry x="490" y="-440" width="400" height="210" as="geometry" />
        </mxCell>
        <mxCell id="5J2XGrj4s4jfsyrbcdtI-2" value="" style="shape=tableRow;horizontal=0;startSize=0;swimlaneHead=0;swimlaneBody=0;fillColor=none;collapsible=0;dropTarget=0;points=[[0,0.5],[1,0.5]];portConstraint=eastwest;top=0;left=0;right=0;bottom=1;fontFamily=Helvetica;fontSize=14;rounded=1;shadow=0;snapToPoint=0;fixDash=0;metaEdit=0;backgroundOutline=0;comic=0;" parent="5J2XGrj4s4jfsyrbcdtI-1" vertex="1">
          <mxGeometry y="30" width="400" height="30" as="geometry" />
        </mxCell>
        <mxCell id="5J2XGrj4s4jfsyrbcdtI-3" value="PK" style="shape=partialRectangle;connectable=0;fillColor=none;top=0;left=0;bottom=0;right=0;fontStyle=1;overflow=hidden;fontFamily=Helvetica;fontSize=14;rounded=1;shadow=0;snapToPoint=0;fixDash=0;metaEdit=0;backgroundOutline=0;comic=0;" parent="5J2XGrj4s4jfsyrbcdtI-2" vertex="1">
          <mxGeometry width="40" height="30" as="geometry">
            <mxRectangle width="40" height="30" as="alternateBounds" />
          </mxGeometry>
        </mxCell>
        <mxCell id="5J2XGrj4s4jfsyrbcdtI-4" value="id" style="shape=partialRectangle;connectable=0;fillColor=none;top=0;left=0;bottom=0;right=0;align=left;spacingLeft=6;fontStyle=5;overflow=hidden;fontFamily=Helvetica;fontSize=14;rounded=1;shadow=0;snapToPoint=0;fixDash=0;metaEdit=0;backgroundOutline=0;comic=0;" parent="5J2XGrj4s4jfsyrbcdtI-2" vertex="1">
          <mxGeometry x="40" width="160" height="30" as="geometry">
            <mxRectangle width="160" height="30" as="alternateBounds" />
          </mxGeometry>
        </mxCell>
        <mxCell id="5J2XGrj4s4jfsyrbcdtI-5" value="uuid" style="shape=partialRectangle;connectable=0;fillColor=none;top=0;left=0;bottom=0;right=0;align=left;spacingLeft=6;fontStyle=5;overflow=hidden;fontFamily=Helvetica;fontSize=14;rounded=1;shadow=0;snapToPoint=0;fixDash=0;metaEdit=0;backgroundOutline=0;comic=0;" parent="5J2XGrj4s4jfsyrbcdtI-2" vertex="1">
          <mxGeometry x="200" width="200" height="30" as="geometry">
            <mxRectangle width="200" height="30" as="alternateBounds" />
          </mxGeometry>
        </mxCell>
        <mxCell id="5J2XGrj4s4jfsyrbcdtI-6" value="" style="shape=tableRow;horizontal=0;startSize=0;swimlaneHead=0;swimlaneBody=0;fillColor=none;collapsible=0;dropTarget=0;points=[[0,0.5],[1,0.5]];portConstraint=eastwest;top=0;left=0;right=0;bottom=0;fontFamily=Helvetica;fontSize=14;rounded=1;shadow=0;snapToPoint=0;fixDash=0;metaEdit=0;backgroundOutline=0;comic=0;" parent="5J2XGrj4s4jfsyrbcdtI-1" vertex="1">
          <mxGeometry y="60" width="400" height="30" as="geometry" />
        </mxCell>
        <mxCell id="5J2XGrj4s4jfsyrbcdtI-7" value="" style="shape=partialRectangle;connectable=0;fillColor=none;top=0;left=0;bottom=0;right=0;editable=1;overflow=hidden;fontFamily=Helvetica;fontSize=14;rounded=1;shadow=0;snapToPoint=0;fixDash=0;metaEdit=0;backgroundOutline=0;comic=0;" parent="5J2XGrj4s4jfsyrbcdtI-6" vertex="1">
          <mxGeometry width="40" height="30" as="geometry">
            <mxRectangle width="40" height="30" as="alternateBounds" />
          </mxGeometry>
        </mxCell>
        <mxCell id="5J2XGrj4s4jfsyrbcdtI-8" value="description" style="shape=partialRectangle;connectable=0;fillColor=none;top=0;left=0;bottom=0;right=0;align=left;spacingLeft=6;overflow=hidden;fontFamily=Helvetica;fontSize=14;rounded=1;shadow=0;snapToPoint=0;fixDash=0;metaEdit=0;backgroundOutline=0;comic=0;" parent="5J2XGrj4s4jfsyrbcdtI-6" vertex="1">
          <mxGeometry x="40" width="160" height="30" as="geometry">
            <mxRectangle width="160" height="30" as="alternateBounds" />
          </mxGeometry>
        </mxCell>
        <mxCell id="5J2XGrj4s4jfsyrbcdtI-9" value="Text" style="shape=partialRectangle;connectable=0;fillColor=none;top=0;left=0;bottom=0;right=0;align=left;spacingLeft=6;overflow=hidden;fontFamily=Helvetica;fontSize=14;rounded=1;shadow=0;snapToPoint=0;fixDash=0;metaEdit=0;backgroundOutline=0;comic=0;" parent="5J2XGrj4s4jfsyrbcdtI-6" vertex="1">
          <mxGeometry x="200" width="200" height="30" as="geometry">
            <mxRectangle width="200" height="30" as="alternateBounds" />
          </mxGeometry>
        </mxCell>
        <mxCell id="5J2XGrj4s4jfsyrbcdtI-10" value="" style="shape=tableRow;horizontal=0;startSize=0;swimlaneHead=0;swimlaneBody=0;fillColor=none;collapsible=0;dropTarget=0;points=[[0,0.5],[1,0.5]];portConstraint=eastwest;top=0;left=0;right=0;bottom=0;fontFamily=Helvetica;fontSize=14;rounded=1;shadow=0;snapToPoint=0;fixDash=0;metaEdit=0;backgroundOutline=0;comic=0;" parent="5J2XGrj4s4jfsyrbcdtI-1" vertex="1">
          <mxGeometry y="90" width="400" height="30" as="geometry" />
        </mxCell>
        <mxCell id="5J2XGrj4s4jfsyrbcdtI-11" value="FK" style="shape=partialRectangle;connectable=0;fillColor=none;top=0;left=0;bottom=0;right=0;editable=1;overflow=hidden;fontFamily=Helvetica;fontSize=14;rounded=1;shadow=0;snapToPoint=0;fixDash=0;metaEdit=0;backgroundOutline=0;comic=0;" parent="5J2XGrj4s4jfsyrbcdtI-10" vertex="1">
          <mxGeometry width="40" height="30" as="geometry">
            <mxRectangle width="40" height="30" as="alternateBounds" />
          </mxGeometry>
        </mxCell>
        <mxCell id="5J2XGrj4s4jfsyrbcdtI-12" value="group_id" style="shape=partialRectangle;connectable=0;fillColor=none;top=0;left=0;bottom=0;right=0;align=left;spacingLeft=6;overflow=hidden;shadow=0;fontFamily=Helvetica;fontSize=14;rounded=1;snapToPoint=0;fixDash=0;metaEdit=0;backgroundOutline=0;comic=0;" parent="5J2XGrj4s4jfsyrbcdtI-10" vertex="1">
          <mxGeometry x="40" width="160" height="30" as="geometry">
            <mxRectangle width="160" height="30" as="alternateBounds" />
          </mxGeometry>
        </mxCell>
        <mxCell id="5J2XGrj4s4jfsyrbcdtI-13" value="UUid" style="shape=partialRectangle;connectable=0;fillColor=none;top=0;left=0;bottom=0;right=0;align=left;spacingLeft=6;overflow=hidden;shadow=0;fontFamily=Helvetica;fontSize=14;rounded=1;snapToPoint=0;fixDash=0;metaEdit=0;backgroundOutline=0;comic=0;" parent="5J2XGrj4s4jfsyrbcdtI-10" vertex="1">
          <mxGeometry x="200" width="200" height="30" as="geometry">
            <mxRectangle width="200" height="30" as="alternateBounds" />
          </mxGeometry>
        </mxCell>
        <mxCell id="5J2XGrj4s4jfsyrbcdtI-14" style="shape=tableRow;horizontal=0;startSize=0;swimlaneHead=0;swimlaneBody=0;fillColor=none;collapsible=0;dropTarget=0;points=[[0,0.5],[1,0.5]];portConstraint=eastwest;top=0;left=0;right=0;bottom=0;fontFamily=Helvetica;fontSize=14;rounded=1;shadow=0;snapToPoint=0;fixDash=0;metaEdit=0;backgroundOutline=0;comic=0;" parent="5J2XGrj4s4jfsyrbcdtI-1" vertex="1">
          <mxGeometry y="120" width="400" height="30" as="geometry" />
        </mxCell>
        <mxCell id="5J2XGrj4s4jfsyrbcdtI-15" value="" style="shape=partialRectangle;connectable=0;fillColor=none;top=0;left=0;bottom=0;right=0;editable=1;overflow=hidden;fontFamily=Helvetica;fontSize=14;rounded=1;shadow=0;snapToPoint=0;fixDash=0;metaEdit=0;backgroundOutline=0;comic=0;" parent="5J2XGrj4s4jfsyrbcdtI-14" vertex="1">
          <mxGeometry width="40" height="30" as="geometry">
            <mxRectangle width="40" height="30" as="alternateBounds" />
          </mxGeometry>
        </mxCell>
        <mxCell id="5J2XGrj4s4jfsyrbcdtI-16" value="due_date" style="shape=partialRectangle;connectable=0;fillColor=none;top=0;left=0;bottom=0;right=0;align=left;spacingLeft=6;overflow=hidden;shadow=0;fontFamily=Helvetica;fontSize=14;rounded=1;snapToPoint=0;fixDash=0;metaEdit=0;backgroundOutline=0;comic=0;" parent="5J2XGrj4s4jfsyrbcdtI-14" vertex="1">
          <mxGeometry x="40" width="160" height="30" as="geometry">
            <mxRectangle width="160" height="30" as="alternateBounds" />
          </mxGeometry>
        </mxCell>
        <mxCell id="5J2XGrj4s4jfsyrbcdtI-17" value="Timestamp with time zone:N" style="shape=partialRectangle;connectable=0;fillColor=none;top=0;left=0;bottom=0;right=0;align=left;spacingLeft=6;overflow=hidden;shadow=0;fontFamily=Helvetica;fontSize=14;rounded=1;snapToPoint=0;fixDash=0;metaEdit=0;backgroundOutline=0;comic=0;" parent="5J2XGrj4s4jfsyrbcdtI-14" vertex="1">
          <mxGeometry x="200" width="200" height="30" as="geometry">
            <mxRectangle width="200" height="30" as="alternateBounds" />
          </mxGeometry>
        </mxCell>
        <mxCell id="5J2XGrj4s4jfsyrbcdtI-18" style="shape=tableRow;horizontal=0;startSize=0;swimlaneHead=0;swimlaneBody=0;fillColor=none;collapsible=0;dropTarget=0;points=[[0,0.5],[1,0.5]];portConstraint=eastwest;top=0;left=0;right=0;bottom=0;fontFamily=Helvetica;fontSize=14;rounded=1;shadow=0;snapToPoint=0;fixDash=0;metaEdit=0;backgroundOutline=0;comic=0;" parent="5J2XGrj4s4jfsyrbcdtI-1" vertex="1">
          <mxGeometry y="150" width="400" height="30" as="geometry" />
        </mxCell>
        <mxCell id="5J2XGrj4s4jfsyrbcdtI-19" value="FK" style="shape=partialRectangle;connectable=0;fillColor=none;top=0;left=0;bottom=0;right=0;editable=1;overflow=hidden;fontFamily=Helvetica;fontSize=14;rounded=1;shadow=0;snapToPoint=0;fixDash=0;metaEdit=0;backgroundOutline=0;comic=0;" parent="5J2XGrj4s4jfsyrbcdtI-18" vertex="1">
          <mxGeometry width="40" height="30" as="geometry">
            <mxRectangle width="40" height="30" as="alternateBounds" />
          </mxGeometry>
        </mxCell>
        <mxCell id="5J2XGrj4s4jfsyrbcdtI-20" value="owner_id" style="shape=partialRectangle;connectable=0;fillColor=none;top=0;left=0;bottom=0;right=0;align=left;spacingLeft=6;overflow=hidden;shadow=0;fontFamily=Helvetica;fontSize=14;rounded=1;snapToPoint=0;fixDash=0;metaEdit=0;backgroundOutline=0;comic=0;" parent="5J2XGrj4s4jfsyrbcdtI-18" vertex="1">
          <mxGeometry x="40" width="160" height="30" as="geometry">
            <mxRectangle width="160" height="30" as="alternateBounds" />
          </mxGeometry>
        </mxCell>
        <mxCell id="5J2XGrj4s4jfsyrbcdtI-21" value="UUid" style="shape=partialRectangle;connectable=0;fillColor=none;top=0;left=0;bottom=0;right=0;align=left;spacingLeft=6;overflow=hidden;shadow=0;fontFamily=Helvetica;fontSize=14;rounded=1;snapToPoint=0;fixDash=0;metaEdit=0;backgroundOutline=0;comic=0;" parent="5J2XGrj4s4jfsyrbcdtI-18" vertex="1">
          <mxGeometry x="200" width="200" height="30" as="geometry">
            <mxRectangle width="200" height="30" as="alternateBounds" />
          </mxGeometry>
        </mxCell>
        <mxCell id="5J2XGrj4s4jfsyrbcdtI-25" style="shape=tableRow;horizontal=0;startSize=0;swimlaneHead=0;swimlaneBody=0;fillColor=none;collapsible=0;dropTarget=0;points=[[0,0.5],[1,0.5]];portConstraint=eastwest;top=0;left=0;right=0;bottom=0;fontFamily=Helvetica;fontSize=14;rounded=1;shadow=0;snapToPoint=0;fixDash=0;metaEdit=0;backgroundOutline=0;comic=0;" parent="5J2XGrj4s4jfsyrbcdtI-1" vertex="1">
          <mxGeometry y="180" width="400" height="30" as="geometry" />
        </mxCell>
        <mxCell id="5J2XGrj4s4jfsyrbcdtI-26" style="shape=partialRectangle;connectable=0;fillColor=none;top=0;left=0;bottom=0;right=0;editable=1;overflow=hidden;fontFamily=Helvetica;fontSize=14;rounded=1;shadow=0;snapToPoint=0;fixDash=0;metaEdit=0;backgroundOutline=0;comic=0;" parent="5J2XGrj4s4jfsyrbcdtI-25" vertex="1">
          <mxGeometry width="40" height="30" as="geometry">
            <mxRectangle width="40" height="30" as="alternateBounds" />
          </mxGeometry>
        </mxCell>
        <mxCell id="5J2XGrj4s4jfsyrbcdtI-27" value="completed" style="shape=partialRectangle;connectable=0;fillColor=none;top=0;left=0;bottom=0;right=0;align=left;spacingLeft=6;overflow=hidden;shadow=0;fontFamily=Helvetica;fontSize=14;rounded=1;snapToPoint=0;fixDash=0;metaEdit=0;backgroundOutline=0;comic=0;" parent="5J2XGrj4s4jfsyrbcdtI-25" vertex="1">
          <mxGeometry x="40" width="160" height="30" as="geometry">
            <mxRectangle width="160" height="30" as="alternateBounds" />
          </mxGeometry>
        </mxCell>
        <mxCell id="5J2XGrj4s4jfsyrbcdtI-28" value="Boolean" style="shape=partialRectangle;connectable=0;fillColor=none;top=0;left=0;bottom=0;right=0;align=left;spacingLeft=6;overflow=hidden;shadow=0;fontFamily=Helvetica;fontSize=14;rounded=1;snapToPoint=0;fixDash=0;metaEdit=0;backgroundOutline=0;comic=0;" parent="5J2XGrj4s4jfsyrbcdtI-25" vertex="1">
          <mxGeometry x="200" width="200" height="30" as="geometry">
            <mxRectangle width="200" height="30" as="alternateBounds" />
          </mxGeometry>
        </mxCell>
        <mxCell id="MPyVj7dRE-3A5l04cmjm-1" value="projects" style="shape=table;startSize=30;container=1;collapsible=1;childLayout=tableLayout;fixedRows=1;rowLines=0;fontStyle=1;align=center;resizeLast=1;fontFamily=Helvetica;fontSize=12;rounded=1;shadow=0;snapToPoint=0;fixDash=0;metaEdit=0;backgroundOutline=0;comic=0;" parent="1" vertex="1">
          <mxGeometry x="1480" y="120" width="374" height="90" as="geometry" />
        </mxCell>
        <mxCell id="MPyVj7dRE-3A5l04cmjm-2" value="" style="shape=tableRow;horizontal=0;startSize=0;swimlaneHead=0;swimlaneBody=0;fillColor=none;collapsible=0;dropTarget=0;points=[[0,0.5],[1,0.5]];portConstraint=eastwest;top=0;left=0;right=0;bottom=1;fontFamily=Helvetica;fontSize=12;rounded=1;shadow=0;snapToPoint=0;fixDash=0;metaEdit=0;backgroundOutline=0;comic=0;" parent="MPyVj7dRE-3A5l04cmjm-1" vertex="1">
          <mxGeometry y="30" width="374" height="30" as="geometry" />
        </mxCell>
        <mxCell id="MPyVj7dRE-3A5l04cmjm-3" value="PK" style="shape=partialRectangle;connectable=0;fillColor=none;top=0;left=0;bottom=0;right=0;fontStyle=1;overflow=hidden;fontFamily=Helvetica;fontSize=12;rounded=1;shadow=0;snapToPoint=0;fixDash=0;metaEdit=0;backgroundOutline=0;comic=0;" parent="MPyVj7dRE-3A5l04cmjm-2" vertex="1">
          <mxGeometry width="30" height="30" as="geometry">
            <mxRectangle width="30" height="30" as="alternateBounds" />
          </mxGeometry>
        </mxCell>
        <mxCell id="MPyVj7dRE-3A5l04cmjm-4" value="id" style="shape=partialRectangle;connectable=0;fillColor=none;top=0;left=0;bottom=0;right=0;align=left;spacingLeft=6;fontStyle=5;overflow=hidden;fontFamily=Helvetica;fontSize=12;rounded=1;shadow=0;snapToPoint=0;fixDash=0;metaEdit=0;backgroundOutline=0;comic=0;" parent="MPyVj7dRE-3A5l04cmjm-2" vertex="1">
          <mxGeometry x="30" width="110" height="30" as="geometry">
            <mxRectangle width="110" height="30" as="alternateBounds" />
          </mxGeometry>
        </mxCell>
        <mxCell id="MPyVj7dRE-3A5l04cmjm-5" value="UUid" style="shape=partialRectangle;connectable=0;fillColor=none;top=0;left=0;bottom=0;right=0;align=left;spacingLeft=6;fontStyle=5;overflow=hidden;fontFamily=Helvetica;fontSize=12;rounded=1;shadow=0;snapToPoint=0;fixDash=0;metaEdit=0;backgroundOutline=0;comic=0;" parent="MPyVj7dRE-3A5l04cmjm-2" vertex="1">
          <mxGeometry x="140" width="234" height="30" as="geometry">
            <mxRectangle width="234" height="30" as="alternateBounds" />
          </mxGeometry>
        </mxCell>
        <mxCell id="MPyVj7dRE-3A5l04cmjm-6" value="" style="shape=tableRow;horizontal=0;startSize=0;swimlaneHead=0;swimlaneBody=0;fillColor=none;collapsible=0;dropTarget=0;points=[[0,0.5],[1,0.5]];portConstraint=eastwest;top=0;left=0;right=0;bottom=0;fontFamily=Helvetica;fontSize=12;rounded=1;shadow=0;snapToPoint=0;fixDash=0;metaEdit=0;backgroundOutline=0;comic=0;" parent="MPyVj7dRE-3A5l04cmjm-1" vertex="1">
          <mxGeometry y="60" width="374" height="30" as="geometry" />
        </mxCell>
        <mxCell id="MPyVj7dRE-3A5l04cmjm-7" value="" style="shape=partialRectangle;connectable=0;fillColor=none;top=0;left=0;bottom=0;right=0;editable=1;overflow=hidden;fontFamily=Helvetica;fontSize=12;rounded=1;shadow=0;snapToPoint=0;fixDash=0;metaEdit=0;backgroundOutline=0;comic=0;" parent="MPyVj7dRE-3A5l04cmjm-6" vertex="1">
          <mxGeometry width="30" height="30" as="geometry">
            <mxRectangle width="30" height="30" as="alternateBounds" />
          </mxGeometry>
        </mxCell>
        <mxCell id="MPyVj7dRE-3A5l04cmjm-8" value="name" style="shape=partialRectangle;connectable=0;fillColor=none;top=0;left=0;bottom=0;right=0;align=left;spacingLeft=6;overflow=hidden;fontFamily=Helvetica;fontSize=12;rounded=1;shadow=0;snapToPoint=0;fixDash=0;metaEdit=0;backgroundOutline=0;comic=0;" parent="MPyVj7dRE-3A5l04cmjm-6" vertex="1">
          <mxGeometry x="30" width="110" height="30" as="geometry">
            <mxRectangle width="110" height="30" as="alternateBounds" />
          </mxGeometry>
        </mxCell>
        <mxCell id="MPyVj7dRE-3A5l04cmjm-9" value="text" style="shape=partialRectangle;connectable=0;fillColor=none;top=0;left=0;bottom=0;right=0;align=left;spacingLeft=6;overflow=hidden;fontFamily=Helvetica;fontSize=12;rounded=1;shadow=0;snapToPoint=0;fixDash=0;metaEdit=0;backgroundOutline=0;comic=0;" parent="MPyVj7dRE-3A5l04cmjm-6" vertex="1">
          <mxGeometry x="140" width="234" height="30" as="geometry">
            <mxRectangle width="234" height="30" as="alternateBounds" />
          </mxGeometry>
        </mxCell>
        <mxCell id="MPyVj7dRE-3A5l04cmjm-35" style="edgeStyle=orthogonalEdgeStyle;rounded=1;orthogonalLoop=1;jettySize=auto;html=1;exitX=1;exitY=0.5;exitDx=0;exitDy=0;entryX=0;entryY=0.5;entryDx=0;entryDy=0;fontSize=12;startSize=8;endSize=8;endArrow=ERmandOne;endFill=0;startArrow=ERzeroToMany;startFill=0;fontFamily=Helvetica;shadow=0;snapToPoint=0;fixDash=0;metaEdit=0;backgroundOutline=0;comic=0;" parent="1" source="wmbltMZWieqaxzGeqLHv-90" target="MPyVj7dRE-3A5l04cmjm-2" edge="1">
          <mxGeometry relative="1" as="geometry" />
        </mxCell>
        <mxCell id="lkaIuTjeRQbzB7QUH0XY-4" style="edgeStyle=elbowEdgeStyle;rounded=0;orthogonalLoop=1;jettySize=auto;html=1;exitX=0;exitY=0.5;exitDx=0;exitDy=0;entryX=1;entryY=0.5;entryDx=0;entryDy=0;fontSize=12;startSize=8;endSize=8;startArrow=ERzeroToMany;startFill=0;endArrow=ERmandOne;endFill=0;" edge="1" parent="1" source="wmbltMZWieqaxzGeqLHv-219" target="wmbltMZWieqaxzGeqLHv-277">
          <mxGeometry relative="1" as="geometry" />
        </mxCell>
      </root>
    </mxGraphModel>
  </diagram>
</mxfile>
